<svg width="24" height="25" viewBox="0 0 24 25" fill="none" xmlns="http://www.w3.org/2000/svg">
<path d="M9.13033 4.68035C9.42322 4.38746 9.42322 3.91259 9.13033 3.61969C8.83744 3.3268 8.36256 3.3268 8.06967 3.61969L4.46967 7.21969C4.17678 7.51259 4.17678 7.98746 4.46967 8.28035L8.06967 11.8804C8.36256 12.1732 8.83744 12.1732 9.13033 11.8804C9.42322 11.5875 9.42322 11.1126 9.13033 10.8197L6.81064 8.5H19C19.4142 8.5 19.75 8.16421 19.75 7.75C19.75 7.33579 19.4142 7 19 7H6.81068L9.13033 4.68035Z" fill="#ED1307"/>
<path d="M15.9304 13.6197C15.6375 13.3268 15.1626 13.3268 14.8697 13.6197C14.5768 13.9126 14.5768 14.3875 14.8697 14.6804L17.1894 17H5C4.58579 17 4.25 17.3358 4.25 17.75C4.25 18.1642 4.58579 18.5 5 18.5H17.1894L14.8697 20.8197C14.5768 21.1126 14.5768 21.5875 14.8697 21.8804C15.1626 22.1732 15.6375 22.1732 15.9304 21.8804L19.5304 18.2804C19.8232 17.9875 19.8232 17.5126 19.5304 17.2197L15.9304 13.6197Z" fill="#ED1307"/>
</svg>
