<svg xmlns="http://www.w3.org/2000/svg" width="24" height="24" viewBox="0 0 24 24" fill="none">
  <path fill-rule="evenodd" clip-rule="evenodd" d="M13.0003 5.99752H2.99609V4.39685L7.99818 1.99585L13.0003 4.39685V5.99752Z" stroke="currentColor" stroke-width="1.5" stroke-linecap="round" stroke-linejoin="round"/>
  <path d="M2.99609 12H9.99901" stroke="currentColor" stroke-width="1.5" stroke-linecap="round" stroke-linejoin="round"/>
  <path fill-rule="evenodd" clip-rule="evenodd" d="M13.0003 5.99752H2.99609V4.39685L7.99818 1.99585L13.0003 4.39685V5.99752Z" stroke="currentColor" stroke-width="1.5" stroke-linecap="round" stroke-linejoin="round"/>
  <path d="M2.99609 12H9.99901" stroke="currentColor" stroke-width="1.5" stroke-linecap="round" stroke-linejoin="round"/>
  <path d="M3.9963 12.0001V5.99756" stroke="currentColor" stroke-width="1.5" stroke-linecap="round" stroke-linejoin="round"/>
  <path d="M6.99728 12.0001V5.99756" stroke="currentColor" stroke-width="1.5" stroke-linecap="round" stroke-linejoin="round"/>
  <path d="M9.99923 12.0001V5.99756" stroke="currentColor" stroke-width="1.5" stroke-linecap="round" stroke-linejoin="round"/>
  <path d="M7.99818 21.0038H4.71081C3.76441 21.0038 2.99609 20.2355 2.99609 19.2891V16.0017" stroke="currentColor" stroke-width="1.5" stroke-linecap="round" stroke-linejoin="round"/>
  <path d="M16.002 3.99658H19.2893C20.2357 3.99658 21.004 4.7649 21.004 5.7113V8.99867" stroke="currentColor" stroke-width="1.5" stroke-linecap="round" stroke-linejoin="round"/>
  <path d="M21.004 21.0038L20.7199 20.2905C20.5758 19.9293 20.3527 19.6042 20.0676 19.3401V19.3401C19.5844 18.8919 18.9491 18.6438 18.2909 18.6438H14.3652" stroke="currentColor" stroke-width="1.5" stroke-linecap="round" stroke-linejoin="round"/>
  <path d="M17.669 12.159C18.5484 13.0384 18.5484 14.463 17.669 15.3424C16.7897 16.2217 15.3651 16.2217 14.4857 15.3424C13.6063 14.463 13.6063 13.0384 14.4857 12.159C15.3651 11.2797 16.7897 11.2797 17.669 12.159" stroke="currentColor" stroke-width="1.5" stroke-linecap="round" stroke-linejoin="round"/>
</svg>