<svg width="24" height="24" viewBox="0 0 24 24" fill="none" xmlns="http://www.w3.org/2000/svg">
<path fill-rule="evenodd" clip-rule="evenodd" d="M18.9454 11.6002L18.7503 12.7001H16.3718L15.9511 14.9506H14.4609L15.5 9.36493H19.3521L19.157 10.4864H16.7786L16.5682 11.6002H18.9454Z" fill="#00427A"/>
<path fill-rule="evenodd" clip-rule="evenodd" d="M7.02578 13.1208H8.23724L7.8761 11.8562L7.02578 13.1208ZM6.40868 14.2055L5.90437 14.9506H4.6106L8.31326 9.36493H8.44124L10.0062 14.9506H8.62874L8.44124 14.2055H6.40868Z" fill="#00427A"/>
<path fill-rule="evenodd" clip-rule="evenodd" d="M14.541 9.36493H10.9447L10.7344 10.4788H11.8635L10.9752 14.9506H12.2613L13.2016 10.4788C13.5703 10.4788 13.9618 10.4788 14.3306 10.4788L14.541 9.36493Z" fill="#00427A"/>
<path fill-rule="evenodd" clip-rule="evenodd" d="M20.0429 9.47838L20.148 9.55314L20.2392 9.64434L20.3368 9.7419L20.4192 9.84708L20.5016 9.95988L20.5852 10.0879L20.6523 10.2082L20.7208 10.3514L20.7803 10.487L20.8412 10.6378L20.8855 10.7962L20.9235 10.9533L20.9539 11.1117L20.9831 11.2777L20.9983 11.4513L21.0135 11.6237V11.7973L21.0059 11.9772L20.9907 12.1508L20.9615 12.332L20.9235 12.5119L20.8779 12.6931L20.8259 12.8654L20.7575 13.0467L20.6751 13.2203L20.5928 13.3926L20.4876 13.5662L20.3736 13.7322L20.2532 13.897L20.1113 14.0554L19.9605 14.2137L19.7945 14.3645L19.389 14.6953L18.9366 15.0196L18.4551 15.32L17.9292 15.6064L17.3793 15.8775L16.8078 16.1258L16.2059 16.359L15.5888 16.5694L14.9489 16.7658L14.3013 16.9394L13.6475 17.0889L12.9771 17.2245L12.3157 17.3297L11.6454 17.4209L10.9839 17.4805L10.3212 17.5185L9.67492 17.5337L9.04264 17.5261L8.42554 17.4881L7.83124 17.4209L7.25848 17.3373L6.7174 17.2169L6.20548 17.0737L5.72393 16.9014L5.28043 16.6973L4.88128 16.4642L4.52014 16.2007L4.21222 15.9079L3.94865 15.5835L3.74464 15.2224L3.60271 14.8309L3.51148 14.4089L3.47473 13.9577L3.48866 13.5206L3.54189 13.1075L3.63185 12.7007L3.76744 12.3244L3.93344 11.9557L4.13618 11.5933L4.36934 11.2549L4.62531 10.9394L4.91168 10.6226L5.212 10.3286L5.544 10.0511L5.88994 9.77994L6.25108 9.52398L6.61984 9.2832L7.00378 9.0564L7.39408 8.83842L7.7932 8.62806L8.19238 8.43168L8.59786 8.25174L8.98942 8.07816L9.38854 7.91976L9.77254 7.76898L10.1489 7.62702L10.51 7.49142L10.856 7.37106L11.1867 7.257L11.5035 7.15182L11.7885 7.05426L12.0521 6.96432L12.2929 6.8883L12.4956 6.81354L12.1649 7.40784L14.7981 6L11.6682 6.19644L12.3677 6.49674L12.1117 6.57276L11.8342 6.65514L11.5478 6.74508L11.2475 6.8439L10.9307 6.94152L10.5999 7.05426L10.2617 7.16706L9.9157 7.29504L9.56092 7.42302L9.19978 7.55862L8.83102 7.70178L8.46352 7.86018L8.0872 8.01732L7.71082 8.18334L7.3345 8.35692L6.96574 8.54448L6.58942 8.73324L6.22828 8.92842L5.86713 9.14004L5.50599 9.3504L5.16005 9.57594L4.82172 9.8091L4.49732 10.0511L4.1818 10.2995L3.88022 10.5554L3.59511 10.8253L3.31633 11.0965L3.06037 11.3829L2.82721 11.6769L2.61686 11.9772L2.42045 12.2864L2.24812 12.6095L2.17969 12.7527L2.11253 12.8883L2.05171 13.0238L1.99215 13.1594L1.93893 13.295L1.89458 13.4306L1.85656 13.5586L1.81855 13.6866L1.78814 13.8146L1.759 13.9426L1.74379 14.0705L1.72098 14.1909L1.71338 14.3189V14.4393V14.5597L1.72098 14.68L1.72858 14.7928L1.75139 14.9132L1.7742 15.0272L1.80334 15.14L1.84136 15.2604L1.87937 15.3732L1.93133 15.4859L1.98455 15.5987L2.0441 15.7115L2.11253 15.8167L2.18729 15.9295L2.27093 16.0359L2.35329 16.1487L2.44326 16.2614L2.54843 16.3666L2.65361 16.4718L2.95519 16.7354L3.31633 16.9762L3.70789 17.1878L4.14379 17.3677L4.62531 17.5337L5.13724 17.6617L5.67832 17.782L6.25108 17.8644L6.853 17.9329L7.47766 17.9772L8.11636 18H8.78668L9.4633 17.9772L10.1489 17.9404L10.8483 17.8796L11.5554 17.7973L12.2625 17.7073L12.9771 17.5933L13.6855 17.4577L14.385 17.3158L15.0845 17.1497L15.7687 16.9685L16.439 16.781L17.0929 16.5694L17.7252 16.3438L18.3423 16.1107L18.929 15.8623L19.4865 15.6064L20.0201 15.3275L20.5167 15.0488L20.9768 14.7561L21.3974 14.4545L21.5178 14.3417L21.6306 14.2213L21.7434 14.1086L21.8561 13.9806L21.9613 13.8526L22.0526 13.7246L22.1425 13.6042L22.2325 13.4686L22.3085 13.3331L22.3833 13.1975L22.4504 13.0619L22.5113 12.9263L22.5632 12.7907L22.6088 12.6475L22.6545 12.5119L22.6836 12.3763L22.714 12.2332L22.7292 12.0976L22.7368 11.9557L22.7444 11.8201L22.7368 11.6845L22.7292 11.5565L22.7064 11.4209L22.6773 11.2929L22.6316 11.1649L22.586 11.0369L22.5341 10.9166L22.4657 10.7962L22.3909 10.6758L22.3085 10.5631L22.2097 10.4566L22.1121 10.3438L22.0526 10.2995L21.9993 10.2539L21.9474 10.2082L21.8942 10.1639L21.8333 10.1259L21.7738 10.0879L21.713 10.0511L21.661 10.0207L21.5926 9.98268L21.5406 9.95988L21.4722 9.92946L21.4127 9.90792L21.2847 9.8547L21.1567 9.8091L21.0287 9.77232L20.8931 9.73434L20.7575 9.6963L20.6156 9.65958L20.48 9.61392L20.3368 9.57594L20.1936 9.5316L20.0429 9.47838Z" fill="#F37920"/>
</svg>
