<svg width="24" height="24" viewBox="0 0 24 24" fill="none" xmlns="http://www.w3.org/2000/svg">
<path fill-rule="evenodd" clip-rule="evenodd" d="M14.2614 7.80142V21.1408C14.9121 20.9859 15.5473 20.7535 16.136 20.4592V5.19858C15.9346 5.29153 15.5473 5.47747 15.2374 5.72537C14.5867 6.23663 14.2614 6.88732 14.2614 7.80142Z" fill="#E3000F"/>
<path fill-rule="evenodd" clip-rule="evenodd" d="M8.79267 5.72537C8.48282 5.47747 8.0955 5.29153 7.89409 5.19858V20.4746C8.48282 20.769 9.11799 20.9859 9.76868 21.1563V7.80142C9.75317 6.88732 9.42784 6.23663 8.79267 5.72537Z" fill="#E3000F"/>
<path fill-rule="evenodd" clip-rule="evenodd" d="M15.7332 3.37042C14.5867 2.87465 13.3319 2.59577 11.9995 2.59577C10.6827 2.59577 9.42782 2.87465 8.28138 3.35493C8.11096 3.44789 7.86311 3.61831 7.86311 3.89718C7.86311 4.39296 8.56023 4.28451 9.41234 4.98168C10.2179 5.61689 10.6362 6.51548 10.6362 7.52253V21.3113C11.0855 21.3733 11.5348 21.4042 11.9995 21.4042C12.4643 21.4042 12.9136 21.3733 13.3629 21.3113V7.52253C13.3629 6.51548 13.7811 5.61689 14.5867 4.98168C15.4543 4.28451 16.136 4.39296 16.136 3.89718C16.136 3.6338 15.9036 3.46338 15.7332 3.37042Z" fill="#E3000F"/>
<path fill-rule="evenodd" clip-rule="evenodd" d="M11.9995 22.1014C6.42229 22.1014 1.89855 17.5775 1.89855 12C1.89855 6.42253 6.42229 1.89859 11.9995 1.89859C17.5768 1.89859 22.1005 6.42253 22.1005 12C22.1005 17.5775 17.5768 22.1014 11.9995 22.1014ZM11.9841 1C5.91107 1.01549 1 5.92674 1 12C1 18.0733 5.91107 23 11.9841 23H12.015C18.088 22.9845 22.9991 18.0733 22.9991 12C22.9991 5.92674 18.088 1 12.015 1H11.9841Z" fill="#E3000F"/>
<path fill-rule="evenodd" clip-rule="evenodd" d="M2.59569 12C2.59569 15.3465 4.34632 18.2746 6.96451 19.9479V12.7437C5.89554 12.7746 5.49275 13.4254 5.38432 13.6733C5.29137 13.8746 5.21389 14.0915 5.04347 14.0915C4.73363 14.0915 4.48575 13.193 4.48575 12.0775C4.48575 10.962 4.73363 10.0634 5.04347 10.0634C5.22937 10.0634 5.29137 10.2803 5.38432 10.4817C5.50826 10.7296 5.89554 11.3803 6.96451 11.4113V4.05211C4.34632 5.72537 2.59569 8.669 2.59569 12Z" fill="#E3000F"/>
<path fill-rule="evenodd" clip-rule="evenodd" d="M19.8851 13.6733C19.7921 13.8746 19.7301 14.0915 19.5442 14.0915C19.2344 14.0915 18.9865 13.193 18.9865 12.0775C18.9865 10.962 19.2344 10.0634 19.5442 10.0634C19.7301 10.0634 19.7921 10.2803 19.8851 10.4817C20.009 10.7296 20.3808 11.3493 21.4033 11.4113C21.2174 8.31268 19.5288 5.60142 17.05 4.03662V19.9324C19.4822 18.3831 21.1554 15.7648 21.3878 12.7282C20.3653 12.8056 19.9935 13.4254 19.8851 13.6733Z" fill="#E3000F"/>
</svg>
