<svg width="24" height="24" viewBox="0 0 24 24" fill="none" xmlns="http://www.w3.org/2000/svg">
<path fill-rule="evenodd" clip-rule="evenodd" d="M13.2864 14.1175L9.34539 14.1163C9.34539 14.1163 9.22616 14.1031 9.16597 13.9987C9.10694 13.8965 9.12247 13.8422 9.12247 13.8422V10.1687C9.12247 10.1687 9.11781 10.0382 9.18772 9.96016C9.2549 9.88521 9.3784 9.88171 9.3784 9.88171H14.5711C14.5711 9.88171 14.6542 9.86889 14.7498 9.9221C14.8325 9.96676 14.8779 10.1392 14.8779 10.1392V13.909C14.8779 13.909 14.8325 14.0138 14.787 14.0507C14.7463 14.0857 14.6608 14.1152 14.6608 14.1152L13.2864 14.1175ZM13.2561 7.51895V3.45519C17.4294 4.06258 20.6353 7.65565 20.6353 11.9971C20.6353 16.3381 17.4368 19.9363 13.2639 20.5456L13.2569 16.4539H14.8764C16.2282 16.4539 17.2213 15.4406 17.2213 14.0892V9.85491C17.2213 8.50382 16.1447 7.51701 14.7929 7.51701L13.2561 7.51895ZM6.73059 9.85491C6.73059 8.50382 7.55274 7.51041 8.90344 7.51041L10.7027 7.50497V3.4649C6.55039 4.09132 3.36548 7.67041 3.36548 11.9971C3.36548 16.3245 6.55078 19.913 10.7027 20.5386L10.6961 16.4834L9.19121 16.4822C7.83896 16.4822 6.73059 15.4403 6.73059 14.0892V9.85491ZM1 11.9971C1 5.92358 5.92552 1 12.0002 1C18.0756 1 23 5.92397 23 11.9971C23 18.0733 18.0753 22.9965 12.0002 22.9965C5.92552 22.9965 1 18.0737 1 11.9971Z" fill="#B10A32"/>
</svg>
