<svg width="40" height="40" viewBox="0 0 40 40" fill="none" xmlns="http://www.w3.org/2000/svg">
<rect width="40" height="40" rx="12" fill="white"/>
<path d="M36.8668 24.8783L24.8783 36.8668C22.3749 39.3702 18.3416 39.3702 15.8382 36.8668L3.87755 24.8783C1.37415 22.3749 1.37415 18.3416 3.87755 15.8382L15.866 3.87755C18.3694 1.37415 22.4027 1.37415 24.9061 3.87755L36.8946 15.8661C39.3702 18.3694 39.3702 22.4027 36.8668 24.8783Z" fill="url(#paint0_linear_3175_885)"/>
<path d="M38.5913 21.7073C38.3409 22.8756 37.7568 23.9882 36.8667 24.8783L24.8782 36.8668C22.3748 39.3702 18.3416 39.3702 15.8382 36.8668L4.15564 25.1842C4.60069 25.6015 8.35579 28.7724 17.5627 25.1286C25.8518 21.8464 30.8307 20.2053 38.5913 21.7073Z" fill="url(#paint1_linear_3175_885)"/>
<defs>
<linearGradient id="paint0_linear_3175_885" x1="20.3703" y1="38.7464" x2="20.3703" y2="2.00809" gradientUnits="userSpaceOnUse">
<stop offset="0.3855" stop-color="#9AB54C"/>
<stop offset="0.9441" stop-color="#4B5F33"/>
</linearGradient>
<linearGradient id="paint1_linear_3175_885" x1="23.9832" y1="38.2075" x2="21.1597" y2="22.1946" gradientUnits="userSpaceOnUse">
<stop offset="0.4581" stop-color="#9AB54C"/>
<stop offset="0.5575" stop-color="#93AE4A"/>
<stop offset="0.7037" stop-color="#819A44"/>
<stop offset="0.8779" stop-color="#647A3B"/>
<stop offset="1" stop-color="#4B5F33"/>
</linearGradient>
</defs>
</svg>
