<svg width="24" height="24" viewBox="0 0 24 24" fill="none" xmlns="http://www.w3.org/2000/svg">
<path fill-rule="evenodd" clip-rule="evenodd" d="M12.0002 1C18.0597 1 22.9741 5.85381 22.9994 11.8514V11.9457C22.9884 14.6123 22.0071 17.0519 20.3904 18.9403C20.3316 18.9108 20.2248 18.8145 20.0309 18.5246C19.8304 18.2332 18.101 15.5716 18.101 12.5211C18.101 11.9224 18.9639 10.9872 19.7275 10.1663L19.7439 10.1486C20.3086 9.53754 20.8409 8.96157 21.0381 8.50806C21.2917 7.91712 21.1143 7.50453 20.8337 7.36467C20.5797 7.24037 20.1982 7.33105 19.9307 7.8064C19.4915 8.57565 19.3508 8.71939 18.7101 9.23414C18.0798 9.74863 17.0776 10.2665 17.0776 9.59613C17.0776 9.35167 17.3323 8.89848 17.5823 8.45299L17.5826 8.45295C17.7027 8.23875 17.8221 8.02633 17.9115 7.83975C18.1931 7.25876 17.8897 6.83816 17.3082 6.83816C16.1663 6.83816 15.4084 8.29273 15.4084 8.7966C15.4084 9.03878 15.4649 9.18107 15.5236 9.32878C15.5869 9.48817 15.6527 9.65389 15.6527 9.95823C15.6527 10.549 14.3999 11.3153 13.2197 11.3153C12.0319 11.3153 11.3657 11.0639 11.1168 10.3465L11.0379 10.113L11.0248 10.0747C10.7516 9.27621 10.5516 8.69167 10.2076 8.08129C10.0258 7.76022 9.74749 7.53558 9.50344 7.33858L9.48786 7.326C9.16407 7.07453 8.99615 6.84299 8.96112 6.67032C8.92882 6.49901 8.91135 6.17614 9.46484 5.43192C10.0171 4.69193 10.0945 4.1329 9.81814 3.84446C9.71792 3.74183 9.54717 3.6761 9.32789 3.6761C8.93999 3.6761 8.40103 3.88161 7.84556 4.44616C7.17139 5.13696 7.32243 5.80051 7.42104 6.23376C7.44872 6.35537 7.4723 6.4589 7.4723 6.53973C7.4723 6.90824 7.31411 7.1167 6.79594 7.61803C6.274 8.12163 6.09385 8.5534 6.03416 10.2887C6.01129 11.1827 5.85383 11.6974 5.71247 12.1537C5.59034 12.5537 5.47801 12.9297 5.47195 13.4731C5.46228 14.0752 5.5625 14.4632 5.67945 14.9109C5.79427 15.3247 5.91624 15.7989 5.99438 16.592C6.12901 17.9221 6.06708 19.0285 5.78918 20.1826L5.77509 20.259L5.77216 20.2706C5.7265 20.4547 5.67225 20.6733 5.59945 20.7563C2.81547 18.7788 1 15.5494 1 11.8989C1 5.8801 5.92477 1 12.0002 1ZM12.5123 12.7916C11.9647 12.7054 11.5614 12.7849 11.2775 13.0249C10.5446 13.6491 10.5571 15.3884 10.5718 17.4057L10.5755 17.9769C10.584 19.9767 10.5952 21.706 11.0622 22.466C11.2111 22.7086 11.4923 22.8861 11.8665 22.9923C11.8939 22.9932 11.9213 22.994 11.9488 22.995C12.0181 22.9975 12.0876 23 12.1578 23C13.0837 23 13.9826 22.8854 14.8425 22.6737C15.198 22.5023 15.4554 22.2966 15.5437 22.0823C15.5967 21.9432 15.6258 21.69 15.6258 21.3602C15.6258 20.0537 15.2421 17.5618 15.0525 16.33L15.0469 16.2935L14.9511 15.6554L14.933 15.5296L14.9321 15.5235C14.7715 14.3918 14.5899 13.1123 12.5123 12.7916ZM8.97697 20.8492C8.92187 19.258 8.64752 17.1594 8.22084 17.1834C7.76089 17.2117 7.58595 19.6059 7.78733 21.2041C7.8533 21.7128 7.95716 22.1011 8.09301 22.3479C8.29661 22.4305 8.50324 22.5065 8.71352 22.5766C8.89931 22.4129 9.01566 21.9573 8.97697 20.8492ZM18.9187 20.3188C19.0183 19.8122 17.8162 16.9435 17.1455 17.2675C16.6308 17.5228 16.8304 20.4539 17.3621 21.3882C17.4176 21.482 17.5311 21.497 17.6589 21.4754C18.0601 21.2336 18.4436 20.9651 18.8083 20.6722C18.8546 20.5772 18.8921 20.4647 18.9187 20.3188Z" fill="#F14635"/>
</svg>
