<svg width="24" height="24" viewBox="0 0 24 24" fill="none" xmlns="http://www.w3.org/2000/svg">
<path d="M11.7808 1H15.5243C10.7183 5.84011 5.85362 10.679 1.05005 15.5197V11.8122L11.7808 1ZM1.05065 1.0012H8.09848L4.04599 5.02374L3.9831 5.08723L3.85912 5.21181L3.73274 5.33759L3.60876 5.46337L3.3596 5.71373L3.23442 5.84011L3.11043 5.96589L2.98525 6.09167L2.85947 6.21745L2.73609 6.34323L2.61031 6.469L2.48693 6.59478L2.36115 6.72056L2.23657 6.84634L2.11079 6.97212L1.05065 8.04065V1.0012ZM15.5225 23L10.1577 17.5945L8.28715 19.4812L11.7808 23H15.5225Z" fill="#890E15"/>
<path d="M11.9677 12.0003L22.9452 22.9994H19.203L10.1589 13.8864L1.05005 22.9988V19.2907L19.2024 1.0012H22.9458L11.9677 12.0003Z" fill="#890E15"/>
</svg>
