<svg width="24" height="24" viewBox="0 0 24 24" fill="none" xmlns="http://www.w3.org/2000/svg">
<path d="M1 14.2583C1 11.9866 2.86 10.2181 5.2841 10.2181C6.68674 10.2181 7.96742 10.8432 8.69922 11.7884L7.64723 12.8404C7.36823 12.4831 7.0122 12.1934 6.6057 11.9928C6.1992 11.7922 5.75265 11.6859 5.29937 11.6817C3.85098 11.6817 2.6923 12.7642 2.6923 14.2583C2.6923 15.7676 3.85098 16.8501 5.29937 16.8501C5.76889 16.8495 6.23193 16.7405 6.65239 16.5316C7.07286 16.3227 7.43943 16.0195 7.72347 15.6456L8.7602 16.6671C8.05888 17.6581 6.71723 18.3137 5.2841 18.3137C2.86 18.3137 1 16.5452 1 14.2583Z" fill="#255BE3"/>
<path d="M10.1323 10.4925H11.7942V18.0393H10.1323V10.4925Z" fill="#255BE3"/>
<path d="M14.8891 16.0115V11.8952H13.0748V10.4925H14.9653V8.87642L16.5204 8.11413V10.4925H18.9903V11.8952H16.5204V15.7371C16.5204 16.4994 16.9473 16.8349 17.7554 16.8349C18.1758 16.837 18.5918 16.7486 18.975 16.5756V18.0088C18.4948 18.2195 17.9747 18.3235 17.4504 18.3137C15.9716 18.3137 14.8891 17.5057 14.8891 16.0115Z" fill="#255BE3"/>
<path d="M20.3015 10.4925H21.9633V18.0393H20.3015V10.4925Z" fill="#255BE3"/>
<path d="M16.0325 5.69003C17.3974 5.68676 18.743 6.01199 19.9556 6.6382C21.1683 7.26446 22.2125 8.17333 23 9.28808H21.0638C20.4291 8.58267 19.6532 8.01861 18.7865 7.63249C17.9197 7.24636 16.9814 7.04683 16.0325 7.04683C15.0837 7.04683 14.1454 7.24636 13.2787 7.63249C12.4119 8.01861 11.636 8.58267 11.0014 9.28808H9.06513C9.8526 8.17333 10.8968 7.26446 12.1095 6.6382C13.3222 6.01199 14.6677 5.68676 16.0325 5.69003Z" fill="#FF3C28"/>
</svg>
