<svg width="24" height="24" viewBox="0 0 24 24" fill="none" xmlns="http://www.w3.org/2000/svg">
<path d="M1 12C1 18.0752 5.92482 23 12 23C8.11375 22.7645 6.5 20.8002 6.5 18.5999C6.5 16.3999 8.34822 14.2 12 12H1Z" fill="url(#paint0_radial_3427_50473)"/>
<path d="M17.4998 5.39988C17.4998 7.59992 15.6518 9.80017 12 12H23C23 5.92482 18.0752 1 12 1C15.886 1.23551 17.4998 3.20004 17.4998 5.39988Z" fill="url(#paint1_radial_3427_50473)"/>
<path d="M1 12H12C15.6518 9.80017 17.4998 7.59992 17.4998 5.39988C17.4998 3.20004 15.6518 1 12 1C5.92482 1 1 5.92482 1 12Z" fill="url(#paint2_radial_3427_50473)"/>
<path d="M12 12C8.34822 14.2 6.5 16.3999 6.5 18.6001C6.5 20.8002 8.34822 23 12 23C18.0752 23 23 18.0752 23 12H12Z" fill="url(#paint3_radial_3427_50473)"/>
<defs>
<radialGradient id="paint0_radial_3427_50473" cx="0" cy="0" r="1" gradientUnits="userSpaceOnUse" gradientTransform="translate(12 12) rotate(-45) scale(10.9103)">
<stop stop-color="#99D98C"/>
<stop offset="0.0584617" stop-color="#99D98C"/>
<stop offset="0.65" stop-color="#CCEBB5"/>
<stop offset="0.751153" stop-color="#CCEBB5"/>
<stop offset="0.99879" stop-color="white"/>
<stop offset="1" stop-color="white"/>
</radialGradient>
<radialGradient id="paint1_radial_3427_50473" cx="0" cy="0" r="1" gradientUnits="userSpaceOnUse" gradientTransform="translate(12 12) rotate(-45) scale(10.9103)">
<stop stop-color="#99DEF9"/>
<stop offset="0.65" stop-color="#CCEFFC"/>
<stop offset="0.6942" stop-color="#CCEFFC"/>
<stop offset="1" stop-color="white"/>
</radialGradient>
<radialGradient id="paint2_radial_3427_50473" cx="0" cy="0" r="1" gradientUnits="userSpaceOnUse" gradientTransform="translate(11.9999 12) scale(10.9999)">
<stop stop-color="#4DC6F4"/>
<stop offset="0.485427" stop-color="#4DC6F4"/>
<stop offset="1" stop-color="#99DEF9"/>
</radialGradient>
<radialGradient id="paint3_radial_3427_50473" cx="0" cy="0" r="1" gradientUnits="userSpaceOnUse" gradientTransform="translate(12 12) scale(10.9999)">
<stop stop-color="#4DBD38"/>
<stop offset="0.485427" stop-color="#4DBD38"/>
<stop offset="1" stop-color="#9CDA8E"/>
</radialGradient>
</defs>
</svg>
