<svg width="24" height="24" viewBox="0 0 24 24" fill="none" xmlns="http://www.w3.org/2000/svg">
<path d="M11.997 22.7195C11.5207 22.7194 11.0485 22.6316 10.6039 22.4607L10.6041 22.4605C5.47645 19.5142 1.2722 12.2598 1 6.37619C1.29062 1.68533 8.55915 1.26939 11.9998 1.29093C15.5131 1.26939 22.703 1.58061 23 6.37416C22.7295 12.26 18.5228 19.5173 13.393 22.4629C12.9469 22.6348 12.4719 22.7195 11.997 22.7195Z" fill="#CE1663"/>
<path d="M11.9597 17.8448L11.9855 17.816C14.2976 15.2836 16.1014 13.307 18.4133 10.7753C19.1287 9.99224 19.6103 9.57042 18.9378 8.75254L17.5365 7.04978L14.1021 6.16178H9.8182L6.3838 7.04978C5.85725 7.68914 5.48181 8.14483 4.956 8.78419C4.45596 9.39043 4.91606 10.1051 5.44555 10.6853L11.9347 17.816L11.9597 17.8448Z" fill="white"/>
<path d="M17.4534 7.34333C16.7188 7.8557 15.7999 8.07857 14.867 8.27531C15.3509 8.23262 15.6032 8.21053 16.0876 8.16691C16.4032 8.13894 16.6465 8.09919 16.8679 8.32335L17.9365 9.39999C17.7197 9.00688 17.5027 8.61321 17.2859 8.21937C17.151 7.97385 17.1466 7.98048 17.2682 7.72816C17.3302 7.60062 17.3921 7.4716 17.4534 7.34333ZM6.19258 10.424C6.76421 10.551 6.85568 10.5709 7.42713 10.6977C7.80258 10.7803 8.39611 10.7014 8.56506 10.357L9.17718 9.10921C9.12399 9.96095 8.66463 10.992 9.64391 11.1881L11.4435 11.8165C10.6602 11.7544 9.94261 11.5443 9.61741 11.7301C9.2346 11.9477 9.46466 12.3077 9.57913 12.5731L11.1831 16.2907C10.1638 14.4271 9.27454 12.9919 7.99508 11.7714C7.47424 11.2759 6.86599 10.9283 6.19258 10.424ZM6.46662 7.34333C7.10303 7.80417 8.07275 8.04379 9.05351 8.27531C8.55733 8.23188 8.06097 8.18771 7.56535 8.14336C7.258 8.11612 7.25855 8.11612 7.04027 8.33586L5.98351 9.39999C6.21503 8.97964 6.44582 8.55855 6.67826 8.13747C6.77194 7.9687 6.76881 7.97533 6.68636 7.80122C6.61256 7.64847 6.53876 7.49663 6.46662 7.34333ZM11.9801 10.7706L11.9571 10.8681L11.9395 10.7706C11.8451 10.3274 11.7499 9.88347 11.6549 9.4403C11.5443 8.91946 11.5868 8.9305 11.0789 8.77646C10.6335 8.64082 10.1887 8.50592 9.74403 8.37157C11.2102 8.62674 12.7094 8.62674 14.1756 8.37157C12.1334 8.99105 12.4272 8.67837 11.9801 10.7706ZM17.8903 10.4242L16.6557 10.6979C16.2803 10.7803 15.6867 10.7015 15.5178 10.357L14.9066 9.10921C14.9589 9.96095 15.419 10.992 14.4397 11.1881L12.6403 11.8165C13.4227 11.7546 14.1402 11.5444 14.4654 11.7301C14.8482 11.9479 14.6182 12.3077 14.5039 12.5731L12.8998 16.2907C13.919 14.4271 14.8092 12.9921 16.088 11.7716C16.6086 11.2759 17.217 10.9286 17.8903 10.4242Z" fill="#CE1663"/>
</svg>
