<svg width="24" height="24" viewBox="0 0 24 24" fill="none" xmlns="http://www.w3.org/2000/svg">
<path d="M6.64964 10.1176C9.57228 8.21273 12.3679 7.02321 14.1044 6.83304C14.2343 6.81377 14.3753 6.80473 14.5287 6.80607C14.682 6.80473 14.8231 6.81377 14.9531 6.83304C16.6895 7.02321 19.4852 8.21273 22.4076 10.1176C22.5739 10.2261 22.7379 10.335 22.9001 10.4449V1H1.1001V14.8164C2.2993 13.3718 4.27184 11.6674 6.64964 10.1176Z" fill="#3C8989"/>
<path d="M14.5287 7.45787C12.8116 7.79166 10.0961 9.22414 7.30151 11.3877C4.01607 13.9316 1.60477 16.7243 1.1001 18.4073V23H22.9001V12.3134C22.5324 12.0028 22.1506 11.6936 21.7559 11.3877C18.9612 9.22414 16.2457 7.79166 14.5287 7.45787Z" fill="#3C8989"/>
</svg>
