<svg width="24" height="24" viewBox="0 0 24 24" fill="none" xmlns="http://www.w3.org/2000/svg">
<g clip-path="url(#clip0_3427_50449)">
<path d="M12.0614 23.3126C9.83547 23.3126 7.65952 22.6525 5.80873 21.4159C3.95793 20.1792 2.51541 18.4215 1.66359 16.365C0.811763 14.3085 0.588883 12.0456 1.02314 9.86244C1.4574 7.67928 2.52929 5.67392 4.10326 4.09995C5.67724 2.52598 7.68262 1.45409 9.86578 1.01983C12.0489 0.585574 14.3118 0.80845 16.3683 1.66028C18.4248 2.51211 20.1825 3.95463 21.4192 5.80542C22.6559 7.65624 23.3159 9.83214 23.3159 12.0581C23.3094 15.041 22.1216 17.8998 20.0124 20.009C17.9031 22.1183 15.0443 23.3061 12.0614 23.3126ZM12.0614 2.91843C10.2537 2.91843 8.48668 3.45446 6.98368 4.45874C5.48067 5.46302 4.30921 6.89046 3.61745 8.5605C2.92569 10.2305 2.7447 12.0682 3.09735 13.8412C3.45001 15.6141 4.32048 17.2426 5.59868 18.5208C6.87687 19.799 8.5054 20.6695 10.2783 21.0221C12.0513 21.3748 13.889 21.1938 15.559 20.5021C17.229 19.8103 18.6565 18.6388 19.6608 17.1358C20.6651 15.6328 21.2011 13.8658 21.2011 12.0581C21.1946 9.63612 20.2295 7.3152 18.5169 5.60257C16.8043 3.88996 14.4834 2.92494 12.0614 2.91843Z" fill="#F78429"/>
<path d="M16.4398 7.67664H7.68081V16.4356H16.4398V7.67664Z" fill="#F78429"/>
</g>
<defs>
<clipPath id="clip0_3427_50449">
<rect width="24" height="24" fill="white"/>
</clipPath>
</defs>
</svg>
