<svg width="24" height="24" viewBox="0 0 24 24" fill="none" xmlns="http://www.w3.org/2000/svg">
<path d="M11.9975 21.9788C11.8262 21.9788 11.6538 21.9496 11.4895 21.8911C11.2865 21.8188 11.0958 21.702 10.9344 21.5405L8.89374 19.4999H6.00666C5.77533 19.4999 5.55649 19.4476 5.36109 19.3543C5.0451 19.2035 4.79042 18.9455 4.64344 18.6281C4.55466 18.4364 4.50517 18.223 4.50517 17.9984V15.1113L2.45952 13.0657C2.29744 12.9036 2.18031 12.7128 2.10813 12.5093C1.99088 12.1788 1.9922 11.8145 2.11209 11.4847C2.18457 11.2853 2.30038 11.0985 2.45952 10.9394L4.50013 8.89878V6.0117C4.50013 5.7819 4.55171 5.56443 4.64382 5.37002C4.79733 5.04597 5.06341 4.78601 5.39082 4.63989C5.57763 4.55652 5.7844 4.51021 6.00162 4.51021H8.8887L10.9293 2.4696C11.0858 2.3131 11.269 2.1985 11.4647 2.12581C11.8149 1.99571 12.2048 1.99985 12.5525 2.13823C12.736 2.21128 12.9077 2.32174 13.0556 2.4696L15.0962 4.51021H17.9833C18.1978 4.51021 18.4016 4.55517 18.5859 4.63607C18.936 4.78978 19.2159 5.07323 19.3655 5.42471C19.4423 5.60522 19.4848 5.80367 19.4848 6.0117V8.89878L21.5254 10.9394C21.6723 11.0863 21.7823 11.2567 21.8553 11.4389C21.9984 11.7958 21.9999 12.1977 21.8595 12.5555C21.7865 12.7416 21.6751 12.9159 21.5254 13.0657L19.4848 15.1063V17.9934C19.4848 18.2031 19.4418 18.4025 19.3643 18.5836C19.2165 18.9286 18.9433 19.2066 18.6029 19.3612C18.4138 19.4471 18.2039 19.4948 17.9833 19.4948H15.1063L13.0657 21.5354C12.9033 21.6978 12.7154 21.8151 12.515 21.8881C12.3486 21.9487 12.1735 21.9788 11.9975 21.9788Z" fill="#F8AE00"/>
<path d="M11.277 4.00131L4.00133 11.277C3.60329 11.675 3.60329 12.325 4.00133 12.7281L5.79002 14.5167C6.36945 13.8113 7.26127 12.9901 8.55618 12.3804C11.3274 11.0805 13.0052 12.2595 14.7234 10.234C15.7966 8.96931 15.5497 7.60386 15.2574 6.81281C15.1416 6.5105 14.9602 6.23842 14.7334 6.00665L12.7281 4.00131C12.325 3.60326 11.675 3.60326 11.277 4.00131Z" fill="#008669"/>
<path d="M12.7231 19.9987L19.9987 12.723C20.3968 12.325 20.3968 11.675 19.9987 11.2719L18.21 9.48325C17.6306 10.1886 16.7388 11.0099 15.4439 11.6196C12.6727 12.9195 10.9948 11.7405 9.27669 13.766C8.20348 15.0307 8.45037 16.3961 8.7426 17.1872C8.85849 17.4895 9.03988 17.7616 9.26661 17.9934L11.272 19.9987C11.675 20.3967 12.325 20.3967 12.7231 19.9987Z" fill="#008669"/>
<path fill-rule="evenodd" clip-rule="evenodd" d="M13.3333 1.55198C12.5973 0.816007 11.4027 0.816007 10.6667 1.55198L8.54952 3.66917H5.55318C4.51311 3.66917 3.66917 4.51311 3.66917 5.55318V8.54952L1.55198 10.6667C0.816007 11.4027 0.816007 12.5973 1.55198 13.3333L3.66917 15.4505V18.4468C3.66917 19.4869 4.51311 20.3308 5.55318 20.3308H8.54952L10.6667 22.448C11.4027 23.184 12.5973 23.184 13.3333 22.448L15.4505 20.3308H18.4468C19.4869 20.3308 20.3308 19.4869 20.3308 18.4468V15.4505L22.448 13.3333C23.184 12.5973 23.184 11.4027 22.448 10.6667L20.3308 8.54952V5.55318C20.3308 4.51311 19.4869 3.66917 18.4468 3.66917H15.4505L13.3333 1.55198ZM11.6403 3.16551C11.8428 2.96309 12.163 2.96629 12.3575 3.1633L14.6915 5.49736H17.9933C18.2734 5.49736 18.5026 5.72663 18.5026 6.00665V9.3085L20.8345 11.6403C21.0369 11.8428 21.0337 12.163 20.8367 12.3575L20.8345 12.3597L18.5026 14.6915V17.9933C18.5026 18.2734 18.2734 18.5026 17.9933 18.5026H14.6915L12.3597 20.8345C12.1572 21.0369 11.837 21.0337 11.6425 20.8367L11.6403 20.8345L9.3085 18.5026H6.00665C5.72662 18.5026 5.49736 18.2734 5.49736 17.9933V14.6915L3.16551 12.3597C2.96309 12.1572 2.96629 11.837 3.1633 11.6426L5.49736 9.3085V6.00665C5.49736 5.72663 5.72663 5.49736 6.00665 5.49736H9.3085L11.6403 3.16551ZM19.8526 8.74762L22.1098 11.0049C22.659 11.5541 22.659 12.4459 22.1098 12.9951L19.8526 15.2524V18.4468C19.8526 19.2227 19.2228 19.8526 18.4468 19.8526H15.2524L12.9951 22.1098C12.4459 22.659 11.5541 22.659 11.0049 22.1098L8.74762 19.8526H5.55318C4.77725 19.8526 4.14743 19.2227 4.14743 18.4468V15.2524L1.89016 12.9951C1.34096 12.4459 1.34096 11.5541 1.89016 11.0049L4.14743 8.74762V5.55318C4.14743 4.77725 4.77725 4.14743 5.55318 4.14743H8.74762L11.0049 1.89016C11.5541 1.34096 12.4459 1.34096 12.9951 1.89016L15.2524 4.14743H18.4468C19.2228 4.14743 19.8526 4.77725 19.8526 5.55318V8.74762ZM10.9344 21.5405C11.0958 21.702 11.2865 21.8188 11.4895 21.8911C11.7996 22.0953 12.2058 22.0943 12.515 21.8881C12.7154 21.8151 12.9033 21.6978 13.0657 21.5354L15.1063 19.4948H17.9833C18.2039 19.4948 18.4138 19.4471 18.6029 19.3612C18.9962 19.2944 19.3056 18.9796 19.3643 18.5836C19.4418 18.4025 19.4848 18.2031 19.4848 17.9934V15.1063L21.5254 13.0657C21.6751 12.9159 21.7865 12.7416 21.8595 12.5555C22.1062 12.2253 22.1048 11.7676 21.8553 11.4389C21.7823 11.2567 21.6723 11.0863 21.5254 10.9394L19.4848 8.89878V6.0117C19.4848 5.80367 19.4423 5.60522 19.3655 5.42471C19.3091 5.01913 18.99 4.69698 18.5859 4.63607C18.4016 4.55517 18.1978 4.51021 17.9833 4.51021H15.0962L13.0556 2.4696C12.9077 2.32174 12.736 2.21128 12.5525 2.13823C12.2311 1.90016 11.7902 1.89603 11.4647 2.12581C11.269 2.1985 11.0858 2.3131 10.9293 2.4696L8.8887 4.51021H6.00162C5.7844 4.51021 5.57763 4.55652 5.39082 4.63989C5.01597 4.70622 4.71847 4.99809 4.64382 5.37002C4.55171 5.56443 4.50013 5.7819 4.50013 6.0117V8.89878L2.45952 10.9394C2.30038 11.0985 2.18457 11.2853 2.11209 11.4847C1.906 11.7935 1.90467 12.1992 2.10813 12.5093C2.18031 12.7128 2.29744 12.9036 2.45952 13.0657L4.50517 15.1113V17.9984C4.50517 18.223 4.55466 18.4364 4.64344 18.6281C4.71549 18.991 4.99968 19.2781 5.36109 19.3543C5.55649 19.4476 5.77533 19.4999 6.00666 19.4999H8.89374L10.9344 21.5405Z" fill="#008669"/>
<path fill-rule="evenodd" clip-rule="evenodd" d="M22.1098 11.0049L19.8526 8.74762V5.55318C19.8526 4.77725 19.2228 4.14743 18.4468 4.14743H15.2524L12.9951 1.89016C12.4459 1.34096 11.5541 1.34096 11.0049 1.89016L8.74762 4.14743H5.55318C4.77725 4.14743 4.14743 4.77725 4.14743 5.55318V8.74762L1.89016 11.0049C1.34096 11.5541 1.34096 12.4459 1.89016 12.9951L4.14743 15.2524V18.4468C4.14743 19.2227 4.77725 19.8526 5.55318 19.8526H8.74762L11.0049 22.1098C11.5541 22.659 12.4459 22.659 12.9951 22.1098L15.2524 19.8526H18.4468C19.2228 19.8526 19.8526 19.2227 19.8526 18.4468V15.2524L22.1098 12.9951C22.659 12.4459 22.659 11.5541 22.1098 11.0049ZM10.9344 21.5405L8.89374 19.4999H6.00666C5.77533 19.4999 5.55649 19.4476 5.36109 19.3543C4.99968 19.2781 4.71549 18.991 4.64344 18.6281C4.55466 18.4364 4.50517 18.223 4.50517 17.9984V15.1113L2.45952 13.0657C2.29744 12.9036 2.18031 12.7128 2.10813 12.5093C1.90467 12.1992 1.906 11.7935 2.11209 11.4847C2.18457 11.2853 2.30038 11.0985 2.45952 10.9394L4.50013 8.89878V6.0117C4.50013 5.7819 4.55171 5.56443 4.64382 5.37002C4.71847 4.99809 5.01597 4.70622 5.39082 4.63989C5.57763 4.55652 5.7844 4.51021 6.00162 4.51021H8.8887L10.9293 2.4696C11.0858 2.3131 11.269 2.1985 11.4647 2.12581C11.7902 1.89603 12.2311 1.90016 12.5525 2.13823C12.736 2.21128 12.9077 2.32174 13.0556 2.4696L15.0962 4.51021H17.9833C18.1978 4.51021 18.4016 4.55517 18.5859 4.63607C18.99 4.69698 19.3091 5.01913 19.3655 5.42471C19.4423 5.60522 19.4848 5.80367 19.4848 6.0117V8.89878L21.5254 10.9394C21.6723 11.0863 21.7823 11.2567 21.8553 11.4389C22.1048 11.7676 22.1062 12.2253 21.8595 12.5555C21.7865 12.7416 21.6751 12.9159 21.5254 13.0657L19.4848 15.1063V17.9934C19.4848 18.2031 19.4418 18.4025 19.3643 18.5836C19.3056 18.9796 18.9962 19.2944 18.6029 19.3612C18.4138 19.4471 18.2039 19.4948 17.9833 19.4948H15.1063L13.0657 21.5354C12.9033 21.6978 12.7154 21.8151 12.515 21.8881C12.2058 22.0943 11.7996 22.0953 11.4895 21.8911C11.2865 21.8188 11.0958 21.702 10.9344 21.5405Z" fill="#008669"/>
</svg>
