<svg width="24" height="24" viewBox="0 0 24 24" fill="none" xmlns="http://www.w3.org/2000/svg">
<path d="M17.8154 17.7813H12.4194V16.1204H16.1511V14.5H12.7959V9.50183H16.1511V7.88138H12.4194V6.22047H17.8154V11.1627H14.4602V12.839H17.8154V17.7813Z" fill="#CB2027"/>
<path d="M11.5712 17.7813H6.17531V12.839H9.53051V11.1627H6.17531V6.22047H11.5712V7.88138H7.83952V9.50183H11.1947V14.5H7.83952V16.1204H11.5712V17.7813Z" fill="#CB2027"/>
<path d="M11.9971 22.98C9.4593 22.9787 6.99986 22.1019 5.03559 20.4979C3.07134 18.894 1.72302 16.6617 1.21909 14.1792C0.715172 11.6967 1.08662 9.11674 2.27051 6.87626C3.45439 4.63582 5.37792 2.87273 7.7152 1.8857C10.4033 0.752272 13.4324 0.731012 16.1362 1.82659C18.84 2.92218 20.9969 5.04486 22.1326 7.72767C23.2683 10.4105 23.2896 13.4337 22.1918 16.1321C21.0941 18.8307 18.9672 20.9834 16.2792 22.1168C14.9246 22.6893 13.4681 22.9828 11.9971 22.98ZM11.9971 2.68351C6.84924 2.68351 2.66113 6.86341 2.66113 12.0013C2.66113 17.1391 6.84924 21.319 11.9971 21.319C17.1451 21.319 21.3346 17.1391 21.3346 12.0013C21.3346 6.86341 17.1451 2.68351 11.9971 2.68351Z" fill="#CB2027"/>
</svg>
