<svg width="24" height="24" viewBox="0 0 24 24" fill="none" xmlns="http://www.w3.org/2000/svg">
<path d="M15.2874 18.4022V19.23H14.2738V15.1504H15.2874V17.0038L16.9129 15.1504H18.1121L16.5587 16.9382L18.2442 19.23H17.0084L15.8692 17.73L15.2874 18.4022ZM13.558 19.23H12.7721L10.8169 16.9922V19.23H9.80333V15.1504H10.5773L12.544 17.4482V15.1504H13.5576V19.23H13.558ZM6.28643 18.5283L6.01629 19.23H4.93711L6.67063 15.1264H7.6362L9.36325 19.23H8.29008L8.01394 18.5283H6.28643ZM7.14995 16.3085L6.62214 17.6644H7.67776L7.14995 16.3085ZM4.83922 18.0959C4.83922 18.774 4.2934 19.2295 3.37584 19.2295H1.24012V15.1499H3.25532C4.13685 15.1499 4.65866 15.5698 4.65866 16.236C4.65866 16.6139 4.44855 17.0038 4.08883 17.1299C4.58755 17.238 4.83922 17.6579 4.83922 18.0959ZM2.25373 16.8121H3.09924C3.47744 16.8121 3.68754 16.6384 3.68754 16.3741C3.68754 16.1159 3.48898 15.9782 3.09924 15.9782H2.25373V16.8121ZM3.24378 18.3902C3.65753 18.3902 3.84363 18.2044 3.84363 17.9642C3.84363 17.7124 3.63352 17.5863 3.26179 17.5863H2.25373V18.3902H3.24378ZM7.57987 8.00423C7.71701 8.41168 8.0929 8.70365 8.53621 8.70365C8.97952 8.70365 9.3554 8.41168 9.49209 8.00423H7.57987ZM8.53667 4.77C6.92645 4.77 5.62101 6.01408 5.62101 7.54919C5.62101 8.09015 5.78355 8.59555 6.06431 9.0224H7.47043C7.04374 8.69949 6.76668 8.18809 6.76668 7.6111C6.76668 6.63311 7.55909 5.84038 8.53667 5.84038C9.51425 5.84038 10.3067 6.63311 10.3067 7.6111C10.3067 8.18809 10.0296 8.69949 9.60245 9.0224H11.0086C11.2898 8.59555 11.4519 8.09015 11.4519 7.54919C11.4514 6.01408 10.1469 4.77 8.53667 4.77ZM18.4021 5.83022V6.57306H20.2104V7.43555H18.4021V8.14236H20.4676V9.02286H17.3903V4.94971H20.4676V5.83022H18.4021ZM16.5508 9.0224H15.5386V6.98051L14.6344 8.37565V8.38165H14.072V8.37565L13.1618 6.96804L13.1678 9.0224H12.1556V4.94925H12.9102L14.3532 7.12372L15.7963 4.94925H16.5508V9.0224ZM4.9168 4.94925V9.0224H3.91105V7.49514H2.25234V9.02286H1.24059V4.94925H2.25234V6.58461H3.91105V4.94925H4.9168ZM4.0856 12.5805C3.92952 12.956 3.6035 13.1782 3.14865 13.1782C2.48415 13.1782 2.02284 12.6872 2.02284 12.0099C2.02284 11.3327 2.48415 10.8416 3.14865 10.8416C3.6035 10.8416 3.92905 11.0643 4.0856 11.4394H5.15738C4.94727 10.5095 4.18211 9.89552 3.15512 9.89552C1.92725 9.89552 1 10.7825 1 12.0099C1 13.2383 1.92771 14.1244 3.15512 14.1244C4.18257 14.1244 4.94727 13.5109 5.15738 12.5805H4.0856ZM23 10.8777H21.8317V14.0467H20.8255V10.8777H19.6581V9.97359H22.9995V10.8777H23ZM18.1125 14.0467H19.1248V9.97313H18.1125V14.0467ZM17.5556 11.9984C17.5556 13.2078 16.6399 14.0467 15.359 14.0467H13.7238V9.97359H15.359C16.6399 9.97359 17.5556 10.8061 17.5556 11.9984ZM16.5319 11.9984C16.5319 11.3692 16.0235 10.8841 15.359 10.8841H14.736V13.1357H15.359C16.023 13.1357 16.5319 12.6451 16.5319 11.9984ZM10.9781 10.8541V11.5965H12.7864V12.4594H10.9781V13.1658H13.0436V14.0467H9.96633V9.97359H13.0436V10.8541H10.9781ZM8.29147 14.0467L7.51937 12.8664H6.74682V14.0467H5.7346V9.97359H7.51291C8.52513 9.97359 9.20163 10.5247 9.20163 11.4052C9.20163 11.9388 8.94396 12.3693 8.51312 12.6211L9.47085 14.0467H8.29147ZM6.74682 11.9559H7.49536C7.88464 11.9559 8.18988 11.7406 8.18988 11.4048C8.18988 11.0754 7.88464 10.8656 7.49536 10.8656H6.74682V11.9559Z" fill="#DB0124"/>
</svg>
