<svg width="24" height="24" viewBox="0 0 24 24" fill="none" xmlns="http://www.w3.org/2000/svg">
<path d="M22.9306 10.8239C22.8783 10.7046 22.7923 10.6032 22.6832 10.532C22.5741 10.4609 22.4466 10.4231 22.3164 10.4233H20.4235C20.3378 10.4218 20.2526 10.4372 20.1728 10.4686C20.0931 10.5001 20.0203 10.547 19.9587 10.6067C18.7964 11.6581 17.4681 12.1421 15.9071 12.0587C13.1846 11.8753 11.1422 9.80642 11.1752 7.25533C11.1917 5.33675 12.7519 3.78575 14.7117 3.78575C15.4918 3.78575 16.2884 4.15242 16.7871 4.75283C16.8696 4.85367 17.0034 5.037 17.0859 5.22033C17.1355 5.36595 17.1355 5.52388 17.0859 5.6695C17.0191 5.83431 16.8947 5.96923 16.7359 6.04916C16.577 6.12909 16.3945 6.14858 16.2224 6.104V6.0875C15.9988 6.0082 15.763 5.96849 15.5257 5.97017C14.6952 5.97017 13.9481 6.50458 13.6493 7.28833C13.5122 7.67106 13.4943 8.08638 13.5981 8.47948C13.7018 8.87258 13.9223 9.22497 14.2305 9.49017C14.2635 9.52317 14.2965 9.55617 14.3295 9.57267L14.3799 9.60658L14.3964 9.62308C14.4205 9.64931 14.4483 9.67186 14.4789 9.69C15.4753 10.24 16.6881 10.2904 17.7166 9.79083C18.8963 9.206 19.7424 8.00517 19.9587 6.57058C20.1576 5.28725 19.7754 3.98558 18.8954 2.95158C17.8843 1.73333 16.3223 1.01742 14.7447 1H14.6622C11.2412 1 8.43531 3.78575 8.40231 7.22142C8.38555 7.8852 8.46396 8.54796 8.63515 9.1895C8.5184 9.18673 8.402 9.1757 8.28681 9.1565C5.49648 8.97317 3.00681 10.1236 1.1634 12.4253C1.07436 12.5269 1.0187 12.6534 1.00394 12.7877C0.989188 12.922 1.01605 13.0576 1.0809 13.1761C1.13591 13.2933 1.22252 13.393 1.33101 13.4637C1.4395 13.5345 1.56557 13.5736 1.69506 13.5767H3.58706C3.7704 13.5767 3.9354 13.5098 4.05181 13.3933C5.21415 12.3254 6.5589 11.8414 8.10348 11.9413C10.826 12.1082 12.8683 14.1762 12.8353 16.7447C12.8188 18.6632 11.2586 20.2143 9.29881 20.2143C8.51873 20.1978 7.72215 19.8311 7.22348 19.2472C7.14098 19.1463 7.00715 18.963 6.92465 18.7632C6.87479 18.6229 6.87479 18.4698 6.92465 18.3296C6.9916 18.1649 7.11606 18.0302 7.27489 17.9505C7.43372 17.8707 7.61611 17.8514 7.78815 17.896C8.02006 17.9794 8.2529 18.0298 8.48481 18.0298C9.31531 18.0298 10.0624 17.4954 10.3612 16.7117C10.4983 16.3263 10.5162 15.9086 10.4125 15.5129C10.3088 15.1173 10.0885 14.762 9.78006 14.4933C9.74706 14.4603 9.73056 14.4438 9.68106 14.4273L9.63065 14.3934C9.63065 14.3769 9.63065 14.3769 9.61415 14.3769C9.59765 14.343 9.56465 14.3265 9.53165 14.31C9.04076 14.0315 8.48941 13.8767 7.92528 13.8592C7.36116 13.8416 6.80124 13.9617 6.29398 14.2092C5.11515 14.794 4.26815 15.9948 4.05181 17.4294C3.8529 18.7128 4.23515 19.9979 5.11515 21.0484C5.62971 21.6487 6.26571 22.133 6.98117 22.4694C7.69664 22.8058 8.47532 22.9866 9.26581 23H9.34831C12.7693 23 15.5752 20.1978 15.6091 16.7786C15.6247 16.0947 15.5257 15.4274 15.3754 14.794C15.4918 14.8105 15.6082 14.827 15.7237 14.827C15.9236 14.8435 16.1069 14.8435 16.2893 14.8435C18.8624 14.8435 21.1201 13.7096 22.8471 11.5582C22.929 11.4563 22.9802 11.3333 22.9948 11.2035C23.0094 11.0736 22.9868 10.9423 22.9296 10.8248L22.9306 10.8239Z" fill="#00B4C4"/>
</svg>
