<svg width="24" height="24" viewBox="0 0 24 24" fill="none" xmlns="http://www.w3.org/2000/svg">
<path d="M8.3105 4.2145L1.62765 15.3526C-0.112682 18.2415 1.97571 21.8962 5.31714 21.8962H18.6829C22.0243 21.8962 24.1127 18.2415 22.3724 15.3526L15.6895 4.2145C14.0188 1.39517 9.98122 1.39517 8.3105 4.2145ZM14.8889 4.7018L21.6066 15.8747C22.5464 17.441 21.4326 19.4598 19.5878 19.4598H6.1525C4.30775 19.4598 3.15913 17.441 4.13372 15.8747L10.8514 4.7018C11.7564 3.17031 13.984 3.17031 14.8889 4.7018Z" fill="#DAAB6B"/>
<path d="M12.2436 7.03384L7.78841 14.4476C7.09228 15.5962 7.92763 17.0581 9.25028 17.0581H18.1608C19.4834 17.0581 20.3188 15.5962 19.6226 14.4476L15.1674 7.03384C14.5061 5.92003 12.905 5.92003 12.2436 7.03384ZM15.1326 8.80897L18.0563 13.6471C18.3348 14.0996 17.9867 14.6565 17.4994 14.6565H11.6519C11.1298 14.6565 10.8166 14.0996 11.095 13.6471L14.0188 8.80897C14.2624 8.35648 14.8889 8.35648 15.1326 8.80897Z" fill="#DAAB6B"/>
</svg>
