<svg width="40" height="40" viewBox="0 0 40 40" fill="none" xmlns="http://www.w3.org/2000/svg">
<g clip-path="url(#clip0_399_162)">
<rect width="40" height="40" rx="12" fill="white"/>
<path d="M23.2749 10.5263H40L16.7251 29.7076H0L23.2749 10.5263Z" fill="#7FE0E9"/>
<path d="M10.0208 21.8099V20.1174H13.3307C13.586 20.1174 13.7597 20.1528 13.853 20.2236C13.9472 20.2944 13.9943 20.4183 13.9943 20.5942V21.3265C13.9943 21.5068 13.9472 21.6329 13.853 21.7037C13.7597 21.7745 13.586 21.8099 13.3307 21.8099H10.0208ZM13.9816 22.8497C14.4842 22.8497 14.8478 22.7557 15.0744 22.5665C15.2996 22.3796 15.4112 22.082 15.4112 21.6716V20.2424C15.4112 19.8298 15.2986 19.5289 15.0744 19.3431C14.8478 19.1572 14.4842 19.0643 13.9816 19.0643H8.57394V25.1462H10.0219V22.8497H11.4158L13.9632 25.1451H16.0739L13.1559 22.8497H13.9816ZM27.1111 21.9294L31.2976 19.0643H29.1689L25.6632 21.6008V19.0643H24.1785V25.1462H25.6632V22.4714L29.4506 25.1462H31.8129L27.1111 21.9294ZM21.9957 23.5057C21.9957 23.7081 21.9462 23.8497 21.8483 23.9294C21.7517 24.0101 21.5619 24.0511 21.2849 24.0511H17.9278V22.5046H21.2849C21.5619 22.5046 21.7517 22.5444 21.8483 22.623C21.9462 22.7015 21.9957 22.8431 21.9957 23.0455V23.5057ZM17.9288 20.0544H21.2859C21.5412 20.0544 21.7173 20.0876 21.8152 20.155C21.9128 20.2214 21.9622 20.3353 21.9622 20.4924V21.0654C21.9622 21.2269 21.9128 21.3398 21.8152 21.405C21.7173 21.4703 21.5412 21.5035 21.2859 21.5035H17.9288V20.0544ZM22.2279 22.0101C22.5788 21.967 22.8478 21.8586 23.0366 21.6838C23.2241 21.5112 23.3183 21.2778 23.3183 20.9847V20.2446C23.3183 19.8342 23.2057 19.5334 22.9835 19.3475C22.7616 19.1595 22.3993 19.0643 21.9014 19.0643H16.4809V25.1462H21.5044C22.1313 25.1462 22.5972 25.0477 22.9053 24.8519C23.2114 24.6572 23.3641 24.3575 23.3641 23.9548V23.1794C23.3641 22.8531 23.2665 22.5876 23.0687 22.384C22.8708 22.1805 22.5915 22.0555 22.2279 22.0101Z" fill="#1D1D1B"/>
<path d="M15.2364 15.913L16.5576 13.5185L17.8833 15.913H15.2364ZM16.139 12.9825L13.4554 17.6608H14.265L14.892 16.5112H18.2188L18.8476 17.6608H19.7493L17.0183 12.9825H16.139ZM31.2242 12.9825H30.0238L26.9573 14.9872V12.9825H26.1326V17.6608H26.9564V15.5582L30.242 17.6608H31.6142L27.6586 15.2229L31.2242 12.9825ZM24.7461 16.5291L20.5821 12.9825H20.0659V17.6608H20.82V14.0359L25.0395 17.6608H25.5002V12.9825H24.7461V16.5291ZM12.628 16.4661C12.628 16.6746 12.5904 16.8193 12.5126 16.8992C12.4348 16.9792 12.2916 17.0184 12.0841 17.0184H9.2458V15.5139H12.0832C12.2881 15.5139 12.4294 15.5548 12.509 15.6365C12.5886 15.7165 12.628 15.8628 12.628 16.0764V16.4661ZM9.2458 13.6104H12.0832C12.2782 13.6104 12.4106 13.6402 12.4804 13.6998C12.5502 13.7585 12.5851 13.8649 12.5851 14.0189V14.4869C12.5851 14.6409 12.5484 14.7481 12.4759 14.8102C12.4026 14.8723 12.2729 14.9038 12.0841 14.9038H9.2458V13.6104ZM13.4554 16.147C13.4554 15.8781 13.3839 15.6662 13.2398 15.5122C13.0949 15.3565 12.8856 15.2629 12.6092 15.2314C12.8919 15.1983 13.0985 15.12 13.23 14.9957C13.3615 14.8715 13.4268 14.6843 13.4268 14.4341V13.8904C13.4268 13.5713 13.3454 13.3407 13.1826 13.1969C13.0198 13.0539 12.7532 12.9825 12.3847 12.9825H8.42105V17.6608H12.0931C12.552 17.6608 12.8937 17.5851 13.1191 17.4353C13.3427 17.2847 13.4554 17.055 13.4554 16.7435V16.147Z" fill="#1D1D1B"/>
</g>
<defs>
<clipPath id="clip0_399_162">
<rect width="40" height="40" rx="12" fill="white"/>
</clipPath>
</defs>
</svg>
