<svg width="24" height="24" viewBox="0 0 24 24" fill="none" xmlns="http://www.w3.org/2000/svg">
<path d="M13.9649 6.31578H24L10.0351 17.8246H0L13.9649 6.31578Z" fill="#7FE0E9"/>
<path d="M6.01248 13.0859V12.0704H7.99842C8.1516 12.0704 8.25582 12.0917 8.3118 12.1342C8.36832 12.1766 8.39658 12.251 8.39658 12.3565V12.7959C8.39658 12.9041 8.36832 12.9797 8.3118 13.0222C8.25582 13.0647 8.1516 13.0859 7.99842 13.0859H6.01248ZM8.38896 13.7098C8.69052 13.7098 8.90868 13.6534 9.04464 13.5399C9.17976 13.4278 9.24672 13.2492 9.24672 13.003V12.1454C9.24672 11.8979 9.17916 11.7173 9.04464 11.6059C8.90868 11.4943 8.69052 11.4386 8.38896 11.4386H5.14436V15.0877H6.01314V13.7098H6.84948L8.37792 15.0871H9.64434L7.89354 13.7098H8.38896ZM16.2667 13.1576L18.7786 11.4386H17.5013L15.3979 12.9605V11.4386H14.5071V15.0877H15.3979V13.4828L17.6704 15.0877H19.0877L16.2667 13.1576ZM13.1974 14.1034C13.1974 14.2249 13.1677 14.3098 13.109 14.3576C13.051 14.4061 12.9371 14.4307 12.7709 14.4307H10.7567V13.5028H12.7709C12.9371 13.5028 13.051 13.5266 13.109 13.5738C13.1677 13.6209 13.1974 13.7059 13.1974 13.8273V14.1034ZM10.7573 12.0326H12.7715C12.9247 12.0326 13.0304 12.0526 13.0891 12.093C13.1477 12.1328 13.1773 12.2012 13.1773 12.2954V12.6392C13.1773 12.7361 13.1477 12.8039 13.0891 12.843C13.0304 12.8822 12.9247 12.9021 12.7715 12.9021H10.7573V12.0326ZM13.3367 13.2061C13.5473 13.1802 13.7087 13.1152 13.822 13.0103C13.9345 12.9067 13.991 12.7667 13.991 12.5908V12.1468C13.991 11.9005 13.9234 11.72 13.7901 11.6085C13.657 11.4957 13.4396 11.4386 13.1408 11.4386H9.88854V15.0877H12.9026C13.2788 15.0877 13.5583 15.0286 13.7432 14.9111C13.9268 14.7943 14.0185 14.6145 14.0185 14.3729V13.9076C14.0185 13.7119 13.9599 13.5526 13.8412 13.4304C13.7225 13.3083 13.5549 13.2333 13.3367 13.2061Z" fill="#1D1D1B"/>
<path d="M9.14184 9.5478L9.93456 8.1111L10.73 9.5478H9.14184ZM9.6834 7.7895L8.07324 10.5965H8.559L8.9352 9.90672H10.9313L11.3086 10.5965H11.8496L10.211 7.7895H9.6834ZM18.7345 7.7895H18.0143L16.1744 8.99232V7.7895H15.6796V10.5965H16.1738V9.33492L18.1452 10.5965H18.9685L16.5952 9.13374L18.7345 7.7895ZM14.8477 9.91746L12.3493 7.7895H12.0395V10.5965H12.492V8.42154L15.0237 10.5965H15.3001V7.7895H14.8477V9.91746ZM7.5768 9.87966C7.5768 10.0048 7.55424 10.0916 7.50756 10.1395C7.46088 10.1875 7.37496 10.211 7.25046 10.211H5.54748V9.30834H7.24992C7.37286 9.30834 7.45764 9.33288 7.5054 9.3819C7.55316 9.4299 7.5768 9.51768 7.5768 9.64584V9.87966ZM5.54748 8.16624H7.24992C7.36692 8.16624 7.44636 8.18412 7.48824 8.21988C7.53012 8.2551 7.55106 8.31894 7.55106 8.41134V8.69214C7.55106 8.78454 7.52904 8.84886 7.48554 8.88612C7.44156 8.92338 7.36374 8.94228 7.25046 8.94228H5.54748V8.16624ZM8.07324 9.6882C8.07324 9.52686 8.03034 9.39972 7.94388 9.30732C7.85694 9.2139 7.73136 9.15774 7.56552 9.13884C7.73514 9.11898 7.8591 9.072 7.938 8.99742C8.0169 8.9229 8.05608 8.81058 8.05608 8.66046V8.33424C8.05608 8.14278 8.00724 8.00442 7.90956 7.91814C7.81188 7.83234 7.65192 7.7895 7.43082 7.7895H5.05263V10.5965H7.25586C7.5312 10.5965 7.73622 10.5511 7.87146 10.4612C8.00562 10.3708 8.07324 10.233 8.07324 10.0461V9.6882Z" fill="#1D1D1B"/>
</svg>
