<svg width="24" height="24" viewBox="0 0 24 24" fill="none" xmlns="http://www.w3.org/2000/svg">
<path fill-rule="evenodd" clip-rule="evenodd" d="M23 8.09C20.9675 8.22154 18.935 8.35308 16.1408 8.49822C13.3466 8.64335 9.83673 8.80666 7.18479 8.74318C5.10911 8.68517 3.04121 8.46678 1 8.09C1.63932 8.6965 2.39415 9.17135 3.22065 9.48703C4.77266 9.9932 6.40591 10.2116 8.03814 10.1312C10.6688 10.0357 13.2907 9.77663 15.8884 9.35549C18.5037 8.97903 20.7289 8.53451 23 8.09Z" fill="#0157A5"/>
<path fill-rule="evenodd" clip-rule="evenodd" d="M22.4803 9.55067C19.4888 10.0587 16.5157 10.5667 14.4603 10.9114C12.4048 11.2561 11.3358 11.365 10.2759 11.4421C9.2969 11.513 8.31393 11.513 7.33494 11.4421C6.60589 11.3697 5.88248 11.25 5.16934 11.0838C6.04973 11.5025 6.97249 11.8279 7.9222 12.0545C9.31345 12.3504 10.7341 12.4888 12.157 12.4672C13.6145 12.4163 15.0682 12.2861 16.5111 12.0772L18.9291 11.7823C18.5782 12.2363 18.3139 12.7496 18.1491 13.2973C18.0328 13.8406 18.0677 14.405 18.2501 14.9302C18.3972 15.3041 18.6296 15.6393 18.9291 15.91C19.1167 15.0648 19.3793 14.2376 19.7136 13.4379C20.0908 12.6364 20.5522 11.8762 21.0901 11.17C21.5188 10.6015 21.9782 10.0564 22.4665 9.53708" fill="#0157A5"/>
</svg>
