<svg width="24" height="24" viewBox="0 0 24 24" fill="none" xmlns="http://www.w3.org/2000/svg">
<path d="M12.6109 11.6114L13.343 10.8086V18.5771L12.6109 19.3798V11.6114Z" fill="#C4161C"/>
<path d="M6.74966 15.2805L11.1158 11.3048L11.5437 11.6777L7.1751 15.7412L6.74966 15.2805Z" fill="#C4161C"/>
<path d="M6.90689 4.03283L11.5416 8.01801C11.5618 8.03535 11.5779 8.05689 11.589 8.08105C11.6001 8.10526 11.6058 8.13152 11.6058 8.15812V11.5638C11.606 11.5988 11.5962 11.6331 11.5775 11.6628C11.5589 11.6925 11.5323 11.7163 11.5007 11.7315C11.4691 11.7466 11.4338 11.7526 11.399 11.7485C11.3642 11.7445 11.3312 11.7306 11.304 11.7086L6.66921 7.92062C6.64801 7.90333 6.63088 7.88162 6.61894 7.857C6.60705 7.83237 6.60064 7.80542 6.60024 7.77812V4.18007C6.59884 4.14398 6.60804 4.10827 6.62668 4.07732C6.64533 4.04638 6.67265 4.02155 6.70521 4.00591C6.73778 3.99026 6.77425 3.98447 6.81007 3.98926C6.8459 3.99404 6.87951 4.00918 6.90689 4.03283Z" fill="#ED1D24"/>
<path d="M6.90672 9.91786L11.5415 13.903C11.5616 13.9204 11.5778 13.9419 11.5889 13.9661C11.6 13.9903 11.6057 14.0165 11.6057 14.0431V16.8575C11.6058 16.8924 11.596 16.9268 11.5774 16.9565C11.5588 16.9862 11.5321 17.01 11.5006 17.0252C11.4689 17.0403 11.4337 17.0462 11.3989 17.0422C11.3641 17.0381 11.3311 17.0243 11.3038 17.0023L6.66904 13.2048C6.64789 13.1874 6.6307 13.1657 6.61882 13.1412C6.60688 13.1165 6.60053 13.0896 6.60012 13.0623V10.058C6.60012 10.0225 6.61031 9.98777 6.62954 9.95791C6.6487 9.92804 6.67608 9.90429 6.70842 9.88957C6.74069 9.87478 6.77658 9.8696 6.8117 9.87461C6.84689 9.87967 6.87986 9.89463 6.90672 9.91786Z" fill="#ED1D24"/>
<path d="M6.90672 15.2902L11.5415 19.2754C11.5616 19.2927 11.5778 19.3143 11.5889 19.3384C11.6 19.3626 11.6057 19.3889 11.6057 19.4155V22.814C11.6058 22.8491 11.596 22.8834 11.5774 22.9131C11.5588 22.9428 11.5321 22.9666 11.5006 22.9817C11.4689 22.9969 11.4337 23.0028 11.3989 22.9988C11.3641 22.9947 11.3311 22.9809 11.3038 22.9589L6.66904 19.159C6.64789 19.1417 6.6307 19.12 6.61882 19.0953C6.60694 19.0707 6.60053 19.0438 6.60012 19.0165V15.4327C6.59971 15.397 6.60956 15.3619 6.62855 15.3317C6.6476 15.3015 6.67492 15.2774 6.70731 15.2624C6.7397 15.2473 6.77576 15.242 6.81112 15.2469C6.84654 15.2518 6.87975 15.2669 6.90672 15.2902Z" fill="#ED1D24"/>
<path d="M12.3541 11.5688V8.2154C12.3544 8.18885 12.3603 8.16272 12.3714 8.13856C12.3824 8.1144 12.3984 8.09286 12.4183 8.07528L17.0839 4.03314C17.1109 4.00993 17.1438 3.99493 17.179 3.98991C17.2141 3.98489 17.25 3.99007 17.2823 4.00483C17.3146 4.0196 17.342 4.04332 17.3612 4.07317C17.3803 4.10303 17.3905 4.13777 17.3905 4.17326V11.2791C17.3911 11.3061 17.3856 11.3329 17.3745 11.3575C17.3634 11.3822 17.347 11.404 17.3264 11.4216L17.0887 11.6306C17.0598 11.6555 17.0393 11.6888 17.0301 11.7259C17.0208 11.7629 17.0232 11.802 17.037 11.8376C17.0508 11.8732 17.0753 11.9037 17.1071 11.9249C17.1389 11.9461 17.1765 11.9569 17.2147 11.956C17.2638 11.956 17.311 11.9755 17.3458 12.0102C17.3805 12.045 17.4001 12.0921 17.4001 12.1412V19.0285C17.4001 19.0555 17.3944 19.0821 17.3833 19.1067C17.3723 19.1313 17.3561 19.1531 17.3359 19.171L12.8224 22.9495C12.7954 22.9729 12.7621 22.9879 12.7267 22.9929C12.6914 22.9978 12.6553 22.9924 12.6229 22.9774C12.5905 22.9623 12.5632 22.9382 12.5442 22.908C12.5252 22.8778 12.5153 22.8428 12.5157 22.807V19.4133C12.5157 19.3867 12.5215 19.3604 12.5326 19.3362C12.5436 19.3121 12.5598 19.2905 12.5799 19.2731L16.4184 15.9292C16.4381 15.9115 16.4537 15.8899 16.4643 15.8657C16.4749 15.8416 16.4804 15.8155 16.4802 15.7891V14.1267C16.4802 14.0912 16.47 14.0564 16.4508 14.0265C16.4317 13.9967 16.4043 13.973 16.3719 13.9582C16.3397 13.9435 16.3038 13.9383 16.2687 13.9433C16.2335 13.9483 16.2005 13.9633 16.1736 13.9865L12.6607 16.9789C12.6339 17.0022 12.6009 17.0171 12.5657 17.0222C12.5306 17.0272 12.4947 17.022 12.4624 17.0072C12.4301 16.9925 12.4027 16.9688 12.3835 16.9389C12.3643 16.909 12.3541 16.8743 12.3541 16.8388V14.0554C12.3545 14.0295 12.3601 14.0038 12.3707 13.9801C12.3814 13.9565 12.3968 13.9352 12.4159 13.9176L16.5207 10.208C16.5402 10.1907 16.5558 10.1696 16.5665 10.1458C16.5771 10.122 16.5825 10.0963 16.5825 10.0703V8.96351C16.5826 8.92847 16.5728 8.89412 16.5542 8.86444C16.5356 8.83475 16.509 8.81094 16.4773 8.79581C16.4458 8.78061 16.4105 8.77473 16.3757 8.77875C16.3408 8.78282 16.3079 8.79662 16.2806 8.81862L12.6583 11.7137C12.6308 11.7355 12.5978 11.7491 12.5629 11.753C12.528 11.7569 12.4928 11.751 12.4611 11.7359C12.4295 11.7208 12.4026 11.6972 12.3837 11.6676C12.3648 11.6381 12.3545 11.6039 12.3541 11.5688Z" fill="#ED1D24"/>
<path d="M9.30154 2.30857V1.24697C9.30236 1.21973 9.31045 1.1932 9.32508 1.17017C9.33964 1.14714 9.3602 1.12845 9.3845 1.11607C9.40879 1.10369 9.436 1.09806 9.4632 1.09978C9.49041 1.1015 9.51668 1.11051 9.53922 1.12585L11.5429 2.68856C11.5606 2.70292 11.5748 2.72102 11.5847 2.74155C11.5946 2.76208 11.5998 2.78454 11.5999 2.80731V3.83803C11.5991 3.86528 11.591 3.89181 11.5764 3.91484C11.5618 3.93787 11.5413 3.95655 11.517 3.96894C11.4927 3.98132 11.4655 3.98695 11.4383 3.98522C11.411 3.98351 11.3848 3.9745 11.3622 3.95916L11.1245 3.77391C11.1022 3.75866 11.0761 3.74965 11.0491 3.74783C11.0221 3.746 10.995 3.75142 10.9708 3.76352C10.9466 3.77563 10.926 3.79399 10.9113 3.81669C10.8965 3.83939 10.8881 3.86561 10.8868 3.89266V4.74526C10.8866 4.76753 10.8913 4.78957 10.9008 4.80972C10.9103 4.82988 10.9242 4.84763 10.9415 4.86164L11.2173 5.09913C11.2353 5.11374 11.2497 5.13222 11.2596 5.15319C11.2695 5.17416 11.2745 5.19708 11.2743 5.22025V6.13698C11.2742 6.16584 11.2659 6.1941 11.2504 6.21843C11.2349 6.24276 11.2127 6.26217 11.1865 6.27438C11.1603 6.28658 11.1312 6.29109 11.1026 6.28737C11.0739 6.28364 11.0469 6.27184 11.0247 6.25335L9.59864 5.06588C9.58169 5.05155 9.56806 5.03373 9.55862 5.01365C9.54919 4.99357 9.54418 4.97169 9.544 4.94951V4.0874C9.54482 4.06016 9.55291 4.03363 9.56748 4.0106C9.5821 3.98757 9.60261 3.96888 9.6269 3.9565C9.65125 3.94412 9.6784 3.93849 9.70566 3.94022C9.73286 3.94193 9.75914 3.95094 9.78168 3.96628C9.80399 3.98249 9.83038 3.9922 9.85794 3.99435C9.88544 3.9965 9.91305 3.991 9.93763 3.97847C9.96222 3.96594 9.9829 3.94685 9.99729 3.92333C10.0117 3.8998 10.0194 3.87275 10.0194 3.84516V2.93793C10.0193 2.91254 10.013 2.88755 10.001 2.86518C9.98896 2.84281 9.9716 2.82375 9.95039 2.80969L9.37285 2.43444C9.35112 2.42137 9.33317 2.40291 9.32065 2.38086C9.30818 2.35881 9.3016 2.33391 9.30154 2.30857Z" fill="#ED1D24"/>
<path d="M12.3541 2.63183V6.22749C12.3554 6.25454 12.3637 6.28076 12.3785 6.30349C12.3933 6.3262 12.4138 6.34453 12.4381 6.35664C12.4623 6.36875 12.4893 6.37416 12.5164 6.37235C12.5434 6.37049 12.5694 6.36147 12.5918 6.34622L14.4933 4.84765C14.511 4.8334 14.5254 4.81533 14.5353 4.79478C14.5452 4.77422 14.5503 4.75171 14.5503 4.72891V3.71005C14.5491 3.68301 14.5406 3.65679 14.5259 3.63408C14.5112 3.61138 14.4906 3.59303 14.4664 3.58093C14.4421 3.56882 14.4151 3.5634 14.3881 3.56523C14.361 3.56705 14.335 3.57605 14.3126 3.59131L13.5283 4.23729C13.5064 4.25319 13.4807 4.26287 13.4538 4.26532C13.4268 4.26777 13.3998 4.26289 13.3753 4.2512C13.351 4.23951 13.3303 4.22145 13.3153 4.19893C13.3004 4.17641 13.2919 4.15028 13.2906 4.1233L13.2763 3.30632C13.2758 3.28192 13.2811 3.25775 13.2918 3.23584C13.3026 3.21392 13.3185 3.19493 13.3381 3.18044L14.5052 2.34209C14.525 2.32824 14.5413 2.30976 14.5525 2.28825C14.5636 2.26673 14.5694 2.24283 14.5693 2.2186V1.14749C14.5685 1.12025 14.5604 1.09372 14.5458 1.07069C14.5312 1.04766 14.5107 1.02898 14.4864 1.01659C14.462 1.00421 14.4349 0.998583 14.4076 1.0003C14.3804 1.00202 14.3542 1.01103 14.3316 1.02637L12.4302 2.51308C12.4087 2.52511 12.3905 2.54224 12.3773 2.56295C12.364 2.58366 12.3561 2.60732 12.3541 2.63183Z" fill="#ED1D24"/>
</svg>
