<svg width="24" height="24" viewBox="0 0 24 24" fill="none" xmlns="http://www.w3.org/2000/svg">
<path d="M2.29004 6.64054L12.0053 1L21.7088 6.64054V18.0596L13.2864 23V16.5768C13.2864 16.5768 13.4306 13.1066 16.545 13.998C16.969 14.117 17.3402 14.3776 17.5976 14.737C18.6951 16.2961 17.5472 17.9193 17.2825 18.0882C17.7914 18.2769 20.9295 17.2786 20.1519 14.0392C19.3743 10.7998 15.2175 10.7459 13.7426 12.0012C13.9001 10.9346 14.1838 6.07515 12.0053 3.26796C9.6661 5.91338 10.3366 11.5944 10.3902 12.0353C9.9072 11.6903 6.9235 10.1583 4.51578 12.8243C3.37573 14.1066 3.36312 17.7647 6.76912 18.0581C5.48171 17.0327 5.58729 13.3612 8.88766 13.9012C8.88766 13.9012 10.6313 14.1169 10.7384 16.8972V22.9984L2.29004 17.9803V6.64054Z" fill="#F47A04"/>
</svg>
