<svg width="40" height="40" viewBox="0 0 40 40" fill="none" xmlns="http://www.w3.org/2000/svg">
<g clip-path="url(#clip0_399_170)">
<path d="M32.7193 5.50763V15.3782L37.8669 20.3454L38.0044 20.4814L32.7193 25.5789V32.6364H25.3891L20.2095 37.704L20.0713 37.5687L15.0233 32.6364H7.69457V25.5789L2.41457 20.48L2.55276 20.344L7.64585 15.3767V5.50763C5.52948 7.25817 3.84221 9.44508 2.63276 11.9236C1.37679 14.4945 0.725047 17.3184 0.727301 20.1796C0.727301 25.4582 2.91494 30.2502 6.44366 33.7236C10.1131 37.3355 15.0578 39.3563 20.2066 39.3484C25.5709 39.3484 30.4415 37.1956 33.9695 33.7236C37.4989 30.2502 39.6858 25.4582 39.6858 20.1796C39.6858 17.2269 39.0022 14.4254 37.7804 11.9236C36.5686 9.44934 34.8436 7.26201 32.7193 5.50763Z" fill="#00471C"/>
<path fill-rule="evenodd" clip-rule="evenodd" d="M14.92 30.624C15.8248 30.4807 16.9237 30.6785 17.8924 30.7884C17.8488 30.6545 17.808 30.4749 17.7491 30.3273C17.5404 30.2109 16.6771 30.1164 16.3302 30.1644L16.611 30.1724C16.7368 30.0509 17.4924 29.8662 17.6851 29.7287C17.8931 29.6604 18.107 29.5927 18.2851 29.5236C18.2997 29.2713 18.2291 29.0655 18.3288 28.9156C18.4757 28.6895 18.6437 28.5244 18.72 28.4196C18.8786 28.2625 19.3004 27.9622 19.5375 27.6749C19.76 27.4655 19.8619 27.1775 19.9077 26.9149C19.8968 26.7418 19.8997 26.5804 19.856 26.4335C19.6335 26.0538 19.5695 26.1367 19.419 26.0044C19.275 25.9469 19.0975 25.9149 18.9528 25.8575C18.9419 25.88 19.251 26.3389 19.2975 26.3862C19.3368 26.7011 19.264 26.6705 19.2248 26.7644C19.1819 26.7695 19.1259 26.8335 18.9906 26.7549C18.8233 26.3971 18.5688 26.0982 18.4873 25.6836C18.4873 25.6095 18.4742 25.5876 18.5266 25.5142C18.4139 25.4516 18.6626 25.5767 18.803 25.4116C18.9237 25.4335 19.1011 25.5258 19.1637 25.4785C19.3877 25.1687 19.3491 25.2385 19.3011 25.0371C19.2066 24.9018 19.032 24.9185 18.6975 24.8553C18.5324 24.4844 18.1535 24.4865 17.9026 24.6473C17.7309 24.7076 17.6575 25.0044 17.6379 25.1927L17.6102 25.3833L17.6197 26.4473C17.8451 26.6218 18.0364 26.7295 18.2939 27.0269C18.3157 27.1433 18.3506 27.2916 18.3448 27.5047L18.2786 27.7462L18.0408 27.6756C18.0422 27.5018 18.0699 27.4451 17.952 27.1156C17.8153 26.9665 17.8597 27.0109 17.7237 26.8611C17.696 26.8102 17.435 26.6865 17.376 26.6553L17.1862 26.6L17.2182 25.5411C17.2546 25.2393 17.2815 24.9171 17.5404 24.6662C17.6568 24.5047 17.84 24.4029 18.0531 24.3244C18.224 24.2676 18.2786 24.2676 18.4328 24.2356C18.5731 24.2676 18.7237 24.2531 18.9433 24.3491C19.1848 24.4436 19.2473 24.5767 19.403 24.7033C19.5033 24.856 19.5389 24.9956 19.5869 25.1484C19.6408 25.3338 19.5564 25.5302 19.5506 25.7156L19.5448 25.7345C19.7077 25.56 19.7724 25.4167 19.8364 25.2087C19.8837 25.0393 19.8844 25.0684 19.8531 24.744C19.715 24.4364 19.6619 24.376 19.4822 24.1731C19.3324 24.0422 19.3404 24.0087 19.0451 23.8975C18.8619 23.8109 18.7244 23.8029 18.4619 23.7956C18.3273 23.8 18.1411 23.7927 17.9477 23.8429C17.7331 23.9069 17.6968 23.9047 17.5353 24.0007C17.3651 24.0829 17.2291 24.1789 17.0386 24.4364C16.9186 24.6115 16.8293 24.8058 16.7746 25.0109C16.6837 25.2422 16.6859 25.4284 16.688 25.6989L16.672 26.5847C16.5811 26.5949 16.5222 26.5731 16.4051 26.6167L16.2706 26.7578L16.1673 26.9324L15.92 27.1615C15.7091 27.3964 15.3637 27.4175 15.1455 27.7542C15.112 27.8589 15.1237 27.9324 15.1615 28.0698L15.4611 28.3396C15.5615 28.3789 15.5833 28.4051 15.7499 28.3396C15.8466 28.2662 15.8233 28.1338 15.92 28.0604C16.1455 27.9862 16.4553 28.0902 16.7724 28.0545L16.6393 28.2749C16.5274 28.3493 16.4151 28.4233 16.3026 28.4967L15.9651 28.7498L15.5542 29.1135C15.2924 29.3127 14.9157 29.5236 14.8364 29.6873L14.7877 29.7891C14.6553 29.9367 14.915 30.4829 14.92 30.624ZM21.9564 12.7564L21.9826 16.6327L22.5004 20.8895L22.7077 19.1055L21.9564 12.7564ZM18.7695 12.6036L18.744 16.4793L18.2255 20.7375L18.0182 18.952L18.7695 12.6036ZM25.1404 26.752L24.3062 21.3295L25.091 21.2182L25.7644 20.6269L25.2859 20.5076C24.8699 20.6269 24.7186 20.6676 24.4349 20.9033V20.4611L25.72 14.7869L25.8 12.5265L25.4277 12.9338L25.3339 14.7389L23.8524 20.8393C23.7993 20.9018 23.6262 21.3811 23.5731 21.4444L23.5913 20.7615L24.595 16.6196L25.0153 15.0204L25.1739 12.8895C25.184 12.7498 25.275 12.6095 25.3259 12.4698L25.7891 11.9884C25.7004 11.5673 25.704 11.1324 25.7077 10.7113C25.728 10.4284 25.8022 10.1847 25.8226 9.90182L26.1324 8.65818L26.8437 7.104L25.6073 8.06836L25.4633 8.11636L25.752 3.91127L26.3579 2.81309L25.9288 0.481455L24.9775 2.62182L25.3026 3.89527L24.9615 9.00145C24.8939 9.23782 24.7869 9.35782 24.7193 9.59418C24.3477 10.5316 24.5397 12.6953 24.483 13.7593L24.1302 15.6873L22.5644 21.4531C22.4946 21.5156 22.4379 21.5258 22.368 21.4589L22.1862 20.5716L21.5913 15.5135L21.576 13.9484L21.6349 10.5891C21.4429 9.61236 21.1826 8.62764 21.0008 7.65745L21.024 6.97455C21.1259 7.05455 21.267 7.44436 21.3688 7.52364L22.091 10.6931C22.0204 11.1265 22.0284 11.4444 22.1419 11.9949C22.2851 12.24 22.4153 12.4211 22.5586 12.6662L22.5557 13.7258C22.5448 14.3316 22.5477 15.1455 22.5368 15.7513L22.9404 18.8335C23.0902 18.3113 23.1753 17.4909 23.3251 16.9695C23.2291 16.2633 23.0953 15.8029 23.0924 14.7585L23.1979 13.8218C23.2669 13.5324 23.2975 13.32 23.3673 13.0313C23.4204 12.5091 23.4866 11.904 23.3273 11.3484C23.1724 10.7055 23.0037 10.2051 22.9928 9.39418L22.9404 8.36873L23.2619 4.19636L24.0582 2.64L23.5302 0.455273L22.5557 2.52073L22.8771 4.08582C22.768 5.55273 22.6386 7.00145 22.4757 8.464C22.3229 8.43055 22.2895 8.44946 22.1775 8.30036L20.3782 0H20.3513L18.5513 8.29964C18.4386 8.44945 18.4059 8.43055 18.2531 8.46255C18.0902 7.00073 17.9608 5.552 17.8524 4.08436L18.1739 2.52L17.1993 0.454545L16.6706 2.63927L17.4662 4.19564L17.7877 8.368L17.7353 9.39346C17.7251 10.2044 17.5571 10.7047 17.4008 11.3476C17.2422 11.904 17.3084 12.5084 17.3622 13.0305C17.4313 13.32 17.4604 13.5324 17.531 13.8211L17.6357 14.7578C17.6328 15.8022 17.4982 16.2625 17.4037 16.9687C17.5542 17.4902 17.6379 18.3105 17.7877 18.8327L18.192 15.7505C18.1811 15.1447 18.184 14.3309 18.1739 13.7251L18.1702 12.6655C18.3135 12.4204 18.443 12.2393 18.5862 11.9942C18.7004 11.4436 18.7084 11.1258 18.6371 10.6924L19.36 7.52291C19.4619 7.44291 19.603 7.05309 19.7055 6.97382L19.7288 7.65673C19.5462 8.62691 19.2859 9.61164 19.0931 10.5884L19.1528 13.9476L19.1368 15.5127L18.5426 20.5709L18.3608 21.4582C18.291 21.5251 18.2342 21.5149 18.1644 21.4524L16.5993 15.6865L16.2451 13.7585C16.1884 12.6945 16.3811 10.5309 16.0095 9.59345C15.9419 9.35636 15.835 9.23709 15.7666 9.00073L15.427 3.89527L15.7506 2.62109L14.8 0.480727L14.3702 2.81309L14.9768 3.91127L15.2662 8.11491L15.1215 8.06764L13.8851 7.10327L14.5957 8.65673L14.9055 9.90109C14.9266 10.1847 15 10.4276 15.0211 10.7105C15.0248 11.1316 15.0284 11.5665 14.939 11.9876L15.4037 12.4691C15.4539 12.6087 15.544 12.7491 15.555 12.8887L15.7135 15.0196L16.1331 16.6196L17.1375 20.7607L17.1557 21.4436C17.1026 21.3804 16.9295 20.9011 16.8764 20.8385L15.3942 14.7382L15.3011 12.9331L14.928 12.5258L15.0095 14.7862L16.2939 20.4604V20.9025C16.0102 20.6669 15.859 20.6262 15.443 20.5069L14.9651 20.6262L15.6379 21.2175L16.4233 21.3287L15.5877 26.7513L15.9826 26.5695C16.1731 26.3876 16.3579 26.1149 16.3971 25.7644C16.4859 25.3527 16.5135 24.8189 16.7193 24.4538C16.9484 23.9069 17.3928 23.6465 17.9324 23.4945C18.8306 23.3884 19.328 23.6887 19.9244 24.3527L20.1062 24.7745C20.1484 24.9891 20.1317 25.1578 20.147 25.3644L20.3346 25.3498V25.3527H20.3637L20.3942 25.3535V25.3513L20.5826 25.3658C20.5971 25.1585 20.6015 24.968 20.643 24.7549C20.9688 23.9018 21.728 23.3687 22.7964 23.4953C23.5731 23.7135 24.1942 24.2735 24.2226 25.1207C24.283 25.4698 24.3157 25.8553 24.3637 26.1236C24.4815 26.2655 24.544 26.4015 24.715 26.5178L25.1404 26.752ZM25.7964 30.6C24.8917 30.456 23.792 30.68 22.8233 30.7891C22.867 30.6553 22.9084 30.4756 22.9666 30.328C23.176 30.2116 24.0386 30.1171 24.3862 30.1651L24.1048 30.1731C23.9782 30.0516 23.2233 29.8669 23.0313 29.7295C22.8226 29.6611 22.6095 29.5935 22.4313 29.5244C22.4153 29.272 22.4873 29.0662 22.3869 28.9164C22.2393 28.6902 22.072 28.5251 21.995 28.4204C21.8371 28.2633 21.4153 27.9629 21.1782 27.6756C20.9557 27.4662 20.8546 27.1782 20.808 26.9156C20.8182 26.7425 20.8153 26.5811 20.859 26.4342C21.0822 26.0545 21.1462 26.1375 21.296 26.0051C21.4415 25.9476 21.6182 25.9156 21.7629 25.8582C21.7739 25.8807 21.4648 26.3396 21.4182 26.3869C21.379 26.7018 21.4509 26.6713 21.4909 26.7651C21.5339 26.7702 21.5899 26.8342 21.7259 26.7556C21.8931 26.3978 22.1462 26.0989 22.2291 25.6844C22.2291 25.6102 22.2422 25.5884 22.1891 25.5149C22.3019 25.4524 22.0539 25.5775 21.9128 25.4124C21.7928 25.4342 21.6146 25.5265 21.552 25.4793C21.328 25.1695 21.3666 25.2393 21.4153 25.0378C21.5091 24.9025 21.6829 24.9193 22.0189 24.856C22.1826 24.4851 22.5622 24.4873 22.8131 24.648C22.9848 24.7084 23.059 25.0051 23.0779 25.1935L23.1055 25.384L23.096 26.448C22.8706 26.6225 22.6793 26.7302 22.4219 27.0276C22.4 27.144 22.3651 27.2924 22.3702 27.5055L22.4379 27.7469L22.6757 27.6764C22.6735 27.5025 22.6466 27.4458 22.7629 27.1164C22.9011 26.9673 22.8553 27.0116 22.9928 26.8618C23.0197 26.8109 23.2815 26.6873 23.3397 26.656L23.5302 26.6007L23.4982 25.5418C23.4604 25.24 23.4342 24.9178 23.176 24.6669C23.0597 24.5055 22.8764 24.4036 22.6626 24.3251C22.4924 24.2684 22.4371 24.2684 22.283 24.2364C22.1433 24.2684 21.9906 24.2538 21.7724 24.3498C21.5317 24.4444 21.4684 24.5775 21.3128 24.704C21.2124 24.8567 21.1775 24.9964 21.1288 25.1491C21.075 25.3345 21.16 25.5309 21.1651 25.7164L21.1717 25.7353C21.008 25.5607 20.944 25.4175 20.8808 25.2095C20.8328 25.04 20.8306 25.0691 20.8626 24.7447C21.0015 24.4371 21.0546 24.3767 21.2328 24.1738C21.3833 24.0429 21.3746 24.0095 21.6706 23.8982C21.8546 23.8116 21.9913 23.8036 22.2546 23.7964C22.3884 23.8007 22.5746 23.7935 22.768 23.8436C22.9826 23.9076 23.0197 23.9055 23.1811 24.0015C23.3506 24.0836 23.488 24.1796 23.6771 24.4371C23.7899 24.6116 23.8757 24.7658 23.9419 25.0116C24.032 25.2429 24.0291 25.4291 24.0277 25.6996L24.0437 26.5855C24.1346 26.5956 24.1928 26.5738 24.3106 26.6175L24.4451 26.7585L24.5484 26.9331L24.7957 27.1622C25.0066 27.3971 25.3528 27.4182 25.5695 27.7549C25.6037 27.8596 25.5913 27.9331 25.5535 28.0705L25.2539 28.3404C25.1535 28.3796 25.1324 28.4058 24.9659 28.3404C24.8699 28.2669 24.8924 28.1345 24.7949 28.0611C24.5709 27.9869 24.2604 28.0909 23.9426 28.0553L24.0757 28.2756C24.1884 28.3505 24.3011 28.424 24.4139 28.4975L24.7506 28.7505L25.1615 29.1142C25.4233 29.3135 25.7993 29.5244 25.88 29.688L25.9295 29.7898C26.0604 29.9375 25.8 30.4589 25.7964 30.6Z" fill="#9A7500"/>
</g>
<defs>
<clipPath id="clip0_399_170">
<rect width="40" height="40" rx="12" fill="white"/>
</clipPath>
</defs>
</svg>
