<svg width="24" height="24" viewBox="0 0 24 24" fill="none" xmlns="http://www.w3.org/2000/svg">
<path fill-rule="evenodd" clip-rule="evenodd" d="M13.4864 17.7078L13.4417 17.2609C13.2897 17.0731 13.0215 16.8675 12.7891 16.7424C12.6818 16.5904 12.6013 16.4742 12.4851 16.3222C12.4226 16.1256 12.4762 15.911 12.36 15.7233C12.3153 15.5981 12.2348 15.6249 12.1723 15.5534L11.9309 15.6071C11.8862 15.5087 11.8772 15.5892 11.8415 15.4819L11.9041 15.4283L11.8504 15.4193C11.77 15.4819 11.7521 15.6071 11.7163 15.7322C11.6091 15.92 11.6538 16.1345 11.5912 16.3312C11.4839 16.4831 11.4035 16.5904 11.2872 16.7513C11.0548 16.8854 10.7866 17.0731 10.6347 17.2698L10.59 17.7168L10.8671 17.6721L10.9028 18.0744L9.25799 18.0833L9.24905 17.8151C9.30269 17.8151 9.35632 17.7972 9.4189 17.7972C9.48147 17.7972 9.55299 17.7883 9.60663 17.7883C9.57087 17.4844 9.60663 17.3234 9.69602 17.1C9.79436 17.0106 10.1072 16.7692 10.0983 16.5636C9.99102 16.7334 9.79436 16.5993 9.65132 16.7603C9.54405 16.7513 9.52617 16.7692 9.4189 16.6709C9.36526 16.6172 9.4189 16.4742 9.49935 16.349L9.85693 16.1166C9.83011 15.9736 9.95527 15.9825 10.0447 15.9289C10.0089 15.6965 10.0089 15.2852 10.0625 15.0886C10.1877 14.7399 10.4827 14.3913 10.9475 14.4539C11.2783 14.5343 11.3498 14.7131 11.4124 14.9098C11.4124 14.9992 11.4571 15.1333 11.3677 15.178C11.3856 15.1869 11.2336 15.1959 11.2157 15.2137C11.2068 15.2227 11.1621 15.2674 11.1621 15.2942C11.18 15.3389 10.9922 15.3925 11.0191 15.4015C11.2425 15.3389 11.4392 15.4104 11.466 15.5534C11.5286 15.4909 11.5733 15.3746 11.6538 15.321L11.8951 15.2316L12.1991 15.1959C12.1901 15.2137 12.1901 15.2406 12.1901 15.2495L12.4315 15.3031C12.4941 15.3657 12.5566 15.4819 12.6192 15.5356C12.6371 15.4015 12.8427 15.321 13.0662 15.3925C13.0841 15.3836 12.8963 15.3121 12.9232 15.2674C12.9142 15.2406 12.8785 15.2137 12.8695 15.2048C12.8338 15.1869 12.6907 15.169 12.7176 15.1601C12.6282 15.1154 12.6729 14.9902 12.6729 14.8919C12.7354 14.7042 12.807 14.5165 13.1377 14.4449C13.6026 14.3645 13.9065 14.7221 14.0227 15.0796C14.0764 15.2674 14.0764 15.6875 14.0406 15.92C14.1211 15.9736 14.2551 15.9557 14.2283 16.1077L14.5859 16.3401C14.6664 16.4474 14.72 16.5993 14.6485 16.6619C14.5501 16.7513 14.5412 16.7245 14.425 16.7424C14.282 16.5725 14.0764 16.7245 13.9691 16.5547C13.9601 16.7424 14.282 17.0016 14.3803 17.091C14.4697 17.3056 14.5054 17.4665 14.4697 17.7794C14.5233 17.7794 14.5948 17.7794 14.6485 17.7883C14.7111 17.7883 14.7736 17.7972 14.8273 17.7972L14.8183 18.0744L13.1735 18.0654L13.2092 17.6631L13.4864 17.6989V17.7078ZM14.0495 16.0987C14.0048 16.0898 13.9691 16.063 13.987 16.054C13.987 16.0451 14.0317 16.0451 14.0674 16.054C14.1121 16.063 14.13 16.0898 14.13 16.0987C14.13 16.1166 14.0853 16.1166 14.0495 16.0987ZM13.835 15.8663C13.8707 15.6071 13.978 15.2584 13.7545 14.9009C13.6294 14.7042 13.4506 14.579 13.245 14.5969C13.0126 14.6327 12.8338 14.7221 12.7891 14.9187L12.9321 14.9009L13.0573 14.9187C13.2718 14.7668 13.4864 14.8115 13.5221 15.1333C13.5132 15.2406 13.4595 15.4551 13.397 15.6518C13.3612 15.7501 13.3433 15.8484 13.3165 15.9289C13.3076 15.9736 13.3076 16.0093 13.3076 16.054C13.3076 16.1524 13.3254 16.2507 13.388 16.358C13.4059 16.1345 13.4506 15.8663 13.835 15.8663ZM9.99102 16.1345C10.0357 16.1256 10.0536 16.0987 10.0536 16.0809C10.0447 16.0719 10.0089 16.0719 9.97314 16.0809C9.92845 16.0987 9.89269 16.1256 9.91057 16.1345C9.91057 16.1434 9.94633 16.1434 9.99102 16.1345ZM10.2771 15.8574C10.2413 15.5981 10.143 15.2495 10.3665 14.8919C10.4738 14.6952 10.6525 14.5701 10.876 14.6059C11.1085 14.6416 11.2783 14.7131 11.3319 14.9187L11.1889 14.9009L11.0638 14.9187C10.8492 14.7757 10.6347 14.8204 10.5989 15.1333C10.6168 15.3031 10.733 15.7143 10.7956 15.9468C10.8313 16.0809 10.8045 16.215 10.733 16.358C10.7151 16.1345 10.6525 15.8663 10.2771 15.8663V15.8574Z" fill="#DEAA01"/>
<path fill-rule="evenodd" clip-rule="evenodd" d="M12.3153 14.9724C12.4047 14.5701 12.5298 14.3019 13.1198 14.2304C14.2909 14.3108 14.1836 15.2406 14.2551 15.7501L14.6127 15.7143C14.4697 14.874 14.3088 14.0158 14.1568 13.1577C14.3803 12.9342 14.8988 12.8358 14.8273 12.4872C14.6038 12.4336 14.3535 12.7017 14.13 12.7554C14.5501 11.2446 15.0508 9.52824 14.9345 8.12475C14.8988 8.01747 14.6664 8.11581 14.7111 8.35717C14.8005 8.90248 14.3445 11.4949 13.7545 12.9342C13.7367 12.5677 14.0674 11.0926 14.3624 9.76961C14.4518 9.36733 14.4161 8.86672 14.4518 8.34823C14.5948 8.10687 14.6932 7.91914 14.9614 7.56156C15.015 6.70337 15.1848 5.83625 15.5692 4.987C15.2653 5.07639 14.8898 5.6217 14.6664 5.9614L14.9256 3.38683C15.015 3.17229 15.167 3.05607 15.2385 2.74319L14.9256 1.54531L14.4161 2.71638C14.4697 2.95774 14.5054 3.22592 14.6038 3.39577L14.273 6.36367C14.2373 6.5961 14.2104 6.82853 14.1747 7.05201C14.2194 9.27794 13.9154 11.2625 13.1198 12.9878L13.0304 12.5677C13.1735 12.3442 13.2629 12.1386 13.245 11.9151C13.0751 10.8334 12.9232 9.75173 13.0036 8.5896L12.8963 8.19626C12.8338 8.69687 12.7623 9.16172 12.8159 9.61764C12.9142 10.4758 13.0036 11.2536 12.95 11.9866C12.6013 10.7172 12.4583 9.48354 12.6729 8.38399C12.7176 7.30232 12.6103 6.22064 12.3063 5.13003C12.7712 5.872 12.8606 6.64974 12.9053 7.73141C13.0036 7.97278 13.1735 8.23202 13.2718 8.47338L13.2092 9.02763C13.1913 9.80536 13.2629 10.5742 13.4059 11.3519C13.5489 10.9943 13.5757 10.5652 13.54 10.0557C13.3433 9.5193 13.388 8.97399 13.6473 8.44657C13.683 7.67777 13.6115 6.95368 13.4059 6.28322L13.6204 3.48517C13.7545 3.2885 13.835 3.0382 13.9333 2.79683L13.6115 1.46485C13.4238 1.87607 13.2539 2.32304 13.093 2.73425C13.1467 2.9935 13.1913 3.20805 13.3344 3.47623L13.102 6.12231L12.3153 1.06258L12.0382 1L11.77 1.06258L10.9833 6.12231L10.7509 3.47623C10.8939 3.20805 10.9386 2.98456 10.9922 2.73425C10.8224 2.32304 10.6615 1.87607 10.4738 1.46485L10.1519 2.79683C10.2503 3.0382 10.3307 3.2885 10.4648 3.48517L10.6794 6.28322C10.4648 6.96262 10.4022 7.68671 10.438 8.44657C10.7062 8.98293 10.7509 9.52824 10.5453 10.0557C10.5095 10.5652 10.5363 11.0033 10.6794 11.3519C10.8224 10.5742 10.9028 9.80536 10.876 9.02763L10.8135 8.47338C10.9118 8.23202 11.0816 7.97278 11.18 7.73141C11.2247 6.64974 11.3141 5.872 11.7789 5.13003C11.475 6.22064 11.3677 7.31126 11.4035 8.38399C11.6269 9.48354 11.4839 10.7172 11.1353 11.9866C11.0816 11.2536 11.171 10.4758 11.2694 9.61764C11.323 9.16172 11.2604 8.69687 11.1889 8.19626L11.0816 8.5896C11.1621 9.74279 11.0012 10.8334 10.8403 11.9151C10.8135 12.1386 10.9028 12.3442 11.0548 12.5677L10.9654 12.9878C10.1609 11.2625 9.86587 9.27794 9.91057 7.05201C9.87481 6.82853 9.84799 6.5961 9.81223 6.36367L9.48147 3.39577C9.57981 3.22592 9.61557 2.96668 9.6692 2.71638L9.15965 1.54531L8.84677 2.74319C8.90041 3.05607 9.07026 3.17229 9.15965 3.38683L9.38314 5.9614C9.15965 5.61276 8.81995 5.07639 8.51601 4.987C8.90935 5.84518 9.07026 6.71231 9.1239 7.56156C9.39208 7.91914 9.48147 8.10687 9.63344 8.34823C9.6692 8.86672 9.63344 9.36733 9.72284 9.76961C10.0268 11.0926 10.3575 12.5677 10.3307 12.9342C9.73178 11.486 9.28481 8.90248 9.3742 8.35717C9.4189 8.11581 9.18647 8.00853 9.15071 8.12475C9.02556 9.53718 9.52617 11.2446 9.95527 12.7554C9.73178 12.7017 9.48147 12.4336 9.25799 12.4872C9.17753 12.8358 9.70496 12.9342 9.92845 13.1577C9.77648 14.0158 9.61557 14.8651 9.47254 15.7143L9.83011 15.7501C9.89269 15.2406 9.79436 14.3019 10.9654 14.2304C11.5554 14.3108 11.6806 14.579 11.77 14.9724C11.9756 14.9724 12.1812 14.9724 12.3779 14.9724H12.3153Z" fill="#DEAA01"/>
<path fill-rule="evenodd" clip-rule="evenodd" d="M18.4299 3.40471C21.1117 5.38033 22.8549 8.56278 22.8549 12.1475C22.8549 18.1369 18.0008 23 12.0024 23C6.01297 23 1.1499 18.1459 1.1499 12.1475C1.1499 8.56278 2.8931 5.38033 5.57493 3.40471C5.57493 5.44291 5.57493 7.48111 5.57493 9.5193L2.93779 12.1564L5.57493 14.7936V18.5571H9.33844L11.9935 21.2121L14.6485 18.5571H18.412V14.7936L21.0491 12.1564L18.412 9.5193C18.412 7.48111 18.412 5.44291 18.412 3.40471H18.4299ZM5.25311 4.08411C2.95567 6.01503 1.4896 8.91142 1.4896 12.1475C1.4896 17.9581 6.2007 22.6692 12.0113 22.6692C17.822 22.6692 22.5331 17.9581 22.5331 12.1475C22.5331 8.91142 21.067 6.01503 18.7696 4.08411V9.39415L21.5319 12.1564L18.7696 14.9187V18.8968H14.7915L12.0113 21.677L9.23117 18.8968H5.25311V14.9187L2.49082 12.1564L5.25311 9.39415V4.08411Z" fill="#DEAA01"/>
<path fill-rule="evenodd" clip-rule="evenodd" d="M4.60947 5.43397C3.08976 7.10565 2.13324 9.29581 2.02597 11.7095L4.60947 9.12596V5.43397ZM19.4043 9.12596L21.9878 11.7095C21.8805 9.29581 20.924 7.10565 19.4043 5.43397V9.12596ZM19.4043 18.8432C20.915 17.1715 21.8716 14.9902 21.9788 12.5855L19.4043 15.1601V18.8432ZM15.1312 19.4421L12.4583 22.115C14.9167 22.0077 17.1336 21.0065 18.8232 19.4421H15.1312ZM5.19948 19.4421C6.88009 21.0154 9.10602 22.0077 11.5644 22.115L8.89147 19.4421H5.19948ZM4.60947 15.169L2.03491 12.5945C2.14218 14.9992 3.0987 17.1804 4.60947 18.8521V15.169Z" fill="#078548"/>
</svg>
