<svg width="24" height="24" viewBox="0 0 24 24" fill="none" xmlns="http://www.w3.org/2000/svg">
<path d="M18.9304 7.31508C18.7508 7.06716 18.5732 6.8193 18.4167 6.56946L8.81561 12.1438L4.18114 9.45816C4.07477 9.74796 4.00975 10.0516 3.98804 10.3599L8.86001 13.2115L18.9304 7.31508Z" fill="#2F9A41"/>
<path d="M8.81569 14.242L3.83749 11.3534C3.80065 11.531 3.78573 11.7127 3.79308 11.894C3.79308 14.1026 4.66109 16.2207 6.20617 17.7824C7.75123 19.3441 9.84679 20.2214 12.0318 20.2214C14.2169 20.2214 16.3124 19.3441 17.8575 17.7824C19.4026 16.2207 20.2706 14.1026 20.2706 11.894C20.2798 10.5763 19.9738 9.27595 19.3784 8.10361L8.81569 14.242Z" fill="#2F9A41"/>
<path d="M17.7467 5.87073C17.5121 5.64688 17.2658 5.43578 17.009 5.23834L8.81567 10.0457L4.86477 7.76591C4.73153 8.01383 4.59636 8.28509 4.43994 8.57789L8.77127 11.1054L17.7467 5.87073Z" fill="#2F9A41"/>
<path d="M16.2057 4.6977C15.8956 4.51006 15.573 4.34441 15.2402 4.20193L8.81569 7.9416L5.93649 6.30012C5.74339 6.4953 5.55028 6.75102 5.35718 6.99888L8.79439 8.98584L16.2057 4.6977Z" fill="#2F9A41"/>
</svg>
