<svg width="24" height="24" viewBox="0 0 24 24" fill="none" xmlns="http://www.w3.org/2000/svg">
<mask id="mask0_3427_50436" style="mask-type:luminance" maskUnits="userSpaceOnUse" x="1" y="1" width="22" height="22">
<path d="M11.5086 1.15797C5.52103 1.4287 0.88736 6.5005 1.15694 12.4917C1.42897 18.4775 6.5037 23.111 12.4908 22.8436C18.4801 22.5696 23.1152 17.4973 22.8443 11.5085C22.5799 5.69013 17.7813 1.14675 12.0114 1.14545C11.8444 1.14545 11.6783 1.15 11.5086 1.15797Z" fill="white"/>
</mask>
<g mask="url(#mask0_3427_50436)">
<path d="M23.1151 1.14545H0.887451V23.111H23.1151V1.14545Z" fill="url(#paint0_radial_3427_50436)"/>
</g>
<mask id="mask1_3427_50436" style="mask-type:luminance" maskUnits="userSpaceOnUse" x="1" y="1" width="22" height="22">
<path d="M9.5211 21.3235C8.30611 21.2041 6.85553 20.8219 5.59189 19.727C4.42879 18.724 3.70888 17.3435 3.35892 16.1274C3.00197 14.8859 2.85067 13.4347 3.44303 13.5481C3.6233 13.5829 3.9386 14.3814 4.28074 14.9633C4.63509 15.5635 4.91932 15.8951 5.18841 16.0988C5.30945 16.1905 5.72383 15.2684 6.32922 14.7432C6.68047 14.4525 7.06134 14.354 7.12625 15.2184C7.19946 16.2772 7.00797 17.5381 7.32018 17.5381C7.60539 17.5381 8.25827 17.3211 9.69193 17.1979C10.2291 17.1527 10.5366 17.2549 10.0235 17.9759C9.76628 18.3384 9.42479 18.8498 8.61278 19.4327C9.83006 20.5727 11.2893 20.4339 11.3171 20.9202C11.3332 21.1979 10.788 21.3515 10.0743 21.3515C9.89774 21.3517 9.71308 21.3427 9.5211 21.3235ZM13.6187 11.0779C12.5036 10.8456 12.2755 9.83312 12.2755 9.83312C12.1844 9.4765 12.1608 9.02535 12.2365 8.45201C12.3858 7.24955 12.713 6.68842 13.083 5.75569C13.5779 4.50491 12.3712 3.77327 12.5687 3.31464C12.8389 2.69266 13.7013 3.48254 14.6668 3.54209C15.4933 3.5865 15.9924 3.54762 16.6362 3.63254C17.4932 3.7448 18.5166 4.03586 18.9731 4.57129C19.3909 5.06148 18.7514 5.65808 17.9857 5.28502C17.4236 5.01056 16.7167 5.17797 17.1327 5.76399C17.6294 6.32024 17.8683 6.33505 18.3791 6.46797C19.7801 6.83744 19.8092 8.18211 18.8599 8.87469C17.7825 9.66457 16.6866 9.33642 16.2509 7.78855C16.0316 7.01413 15.4871 6.62057 14.9253 6.842C14.3707 7.05968 14.6996 8.07717 15.1235 9.02014C15.8546 10.8901 14.3731 11.0885 13.8056 11.0885C13.7186 11.0886 13.6511 11.0821 13.6187 11.0779ZM12.8147 21.6749C12.8021 21.4257 13.1664 21.3647 13.1664 21.3647C16.4204 20.7215 15.4689 18.589 14.3184 17.5002C13.8331 17.0443 9.30407 13.1342 9.30407 13.1342C4.98651 9.41614 5.33191 6.51466 5.33191 6.51466C5.54406 2.9411 8.66794 2.05637 11.034 2.26266C11.3117 2.28626 11.4666 2.45269 11.4152 2.68502C11.3649 2.93719 10.9982 2.95395 10.9982 2.95395C10.2449 2.99999 9.56958 3.07499 9.05954 3.42137C7.15456 4.70307 7.7126 6.88528 10.256 9.31445C10.5763 9.61999 10.9164 9.94229 11.2676 10.2704C11.2676 10.2704 11.7759 10.7203 12.7945 11.6862C14.7494 13.4866 15.819 14.4569 15.819 14.4569C19.2668 17.3276 18.0851 19.9518 16.7725 20.8628C15.7669 21.5597 14.6554 21.8863 13.1952 21.9648C13.1828 21.9666 13.1698 21.9673 13.1568 21.9673C13.0234 21.9673 12.8228 21.8863 12.8147 21.6749ZM11.5011 1.01123C5.43359 1.28488 0.737278 6.42876 1.01142 12.4963C1.28637 18.5641 6.42862 23.2605 12.4976 22.9866C18.5649 22.7132 23.2632 17.5718 22.9885 11.5025C22.724 5.6013 17.8535 1.00065 12.0048 1C11.8375 1 11.6695 1.00358 11.5011 1.01123Z" fill="white"/>
</mask>
<g mask="url(#mask1_3427_50436)">
<path d="M23.2632 1H0.737305V23.2605H23.2632V1Z" fill="url(#paint1_radial_3427_50436)"/>
</g>
<defs>
<radialGradient id="paint0_radial_3427_50436" cx="0" cy="0" r="1" gradientUnits="userSpaceOnUse" gradientTransform="translate(13.3499 8.48863) scale(10.2984 10.2978)">
<stop stop-color="white"/>
<stop offset="0.3372" stop-color="#E9D2B2"/>
<stop offset="0.6542" stop-color="#DAB37C"/>
<stop offset="0.8826" stop-color="#D1A25D"/>
<stop offset="1" stop-color="#CE9B51"/>
</radialGradient>
<radialGradient id="paint1_radial_3427_50436" cx="0" cy="0" r="1" gradientUnits="userSpaceOnUse" gradientTransform="translate(13.7529 9.07124) scale(23.035 23.0336)">
<stop stop-color="#1ABFF1"/>
<stop offset="0.1013" stop-color="#15ABE2"/>
<stop offset="0.2191" stop-color="#1197D4"/>
<stop offset="0.2228" stop-color="#1196D3"/>
<stop offset="0.2823" stop-color="#1184C7"/>
<stop offset="0.3449" stop-color="#1077BD"/>
<stop offset="0.4111" stop-color="#0F6EB7"/>
<stop offset="0.4834" stop-color="#0E69B4"/>
<stop offset="0.573" stop-color="#0E67B2"/>
<stop offset="1" stop-color="#0E67B2"/>
</radialGradient>
</defs>
</svg>
