<svg width="24" height="24" viewBox="0 0 24 24" fill="none" xmlns="http://www.w3.org/2000/svg">
<g clip-path="url(#clip0_3427_50452)">
<path d="M12.3585 23.8598C18.7105 23.8598 23.8599 18.7105 23.8599 12.3585C23.8599 6.00647 18.7105 0.857147 12.3585 0.857147C6.0065 0.857147 0.857178 6.00647 0.857178 12.3585C0.857178 18.7105 6.0065 23.8598 12.3585 23.8598Z" fill="#EE3148"/>
<path d="M15.2422 14.5573C14.7805 15.1551 14.1423 15.5922 13.4181 15.8068C12.694 16.0215 11.9206 16.0026 11.2078 15.7529C10.495 15.5032 9.87884 15.0355 9.44684 14.416C9.01478 13.7964 8.78882 13.0566 8.80094 12.3015C8.813 11.5462 9.0626 10.8141 9.51428 10.2087C9.96596 9.60331 10.5967 9.15553 11.3172 8.92885C12.0376 8.70217 12.8112 8.70811 13.5281 8.94583C14.245 9.18355 14.8689 9.64093 15.3112 10.2531L18.0817 8.02159C17.1733 6.81745 15.9099 5.92871 14.4695 5.48068C13.0291 5.03264 11.4845 5.04788 10.0533 5.52424C8.62208 6.00061 7.37642 6.91411 6.49184 8.13595C5.60731 9.35779 5.12848 10.8264 5.12285 12.3348C5.11722 13.8432 5.58508 15.3154 6.46046 16.5438C7.33586 17.7722 8.57468 18.6949 10.0023 19.182C11.43 19.669 12.9744 19.6958 14.4181 19.2585C15.8617 18.8212 17.1318 17.942 18.0492 16.7446L15.2422 14.5573Z" fill="white"/>
</g>
<defs>
<clipPath id="clip0_3427_50452">
<rect width="24" height="24" fill="white"/>
</clipPath>
</defs>
</svg>
