<svg width="24" height="24" viewBox="0 0 24 24" fill="none" xmlns="http://www.w3.org/2000/svg">
<path d="M1 7C1 3.68629 3.68629 1 7 1H17C20.3137 1 23 3.68629 23 7V17C23 20.3137 20.3137 23 17 23H7C3.68629 23 1 20.3137 1 17V7Z" fill="#FF6700"/>
<path d="M16.5775 4.09929L13.3473 5.69925C12.5929 6.07293 12.1156 6.842 12.1156 7.6839V16.9374L15.3457 15.3373C16.1001 14.9637 16.5775 14.1946 16.5775 13.3527V4.09929Z" fill="white"/>
<path d="M11.4008 11.4436L8.17068 13.0436C7.41625 13.4172 6.93896 14.1864 6.93896 15.0282V19.5256L10.1691 17.9257C10.9235 17.552 11.4008 16.7829 11.4008 15.941V11.4436Z" fill="white"/>
</svg>
