<svg width="24" height="24" viewBox="0 0 24 24" fill="none" xmlns="http://www.w3.org/2000/svg">
<path fill-rule="evenodd" clip-rule="evenodd" d="M11.5536 1.26021C11.3286 1.40324 10.9974 1.62674 10.8175 1.75686L10.4904 1.99351V1.39001H9.60357V2.74778L9.4026 2.98237C9.12082 3.31126 8.91532 3.63948 8.81985 3.91299L8.73823 4.1468L8.5235 4.04669C8.08875 3.84406 7.92592 3.81983 7.0139 3.82221C6.10482 3.82455 5.77306 3.86336 4.73403 4.08912L4.21138 4.20264C4.11833 4.54831 3.95898 5.28888 3.88707 5.75343C3.82304 6.16728 3.80725 6.42032 3.80633 7.04826C3.80494 7.97437 3.84868 8.20158 4.13206 8.7402C4.13919 8.75375 4.07654 8.78327 3.99285 8.80579C3.22333 9.013 2.18339 10.0617 1.2251 11.5969C0.984794 11.9818 0.975358 12.0049 1.02247 12.0945C1.13045 12.2998 1.76712 13.2399 2.00846 13.5504C2.70554 14.4471 3.5392 15.1369 4.0201 15.215C4.08629 15.2257 4.14043 15.2464 4.14043 15.2609C4.14043 15.2754 4.10048 15.3588 4.05164 15.4461C3.80917 15.88 3.72211 16.8518 3.83627 17.8504C3.88753 18.2987 4.08158 19.3652 4.16867 19.6773C4.20347 19.8021 4.25544 19.8233 4.85042 19.9559C6.47922 20.3188 8.02795 20.3058 8.61612 19.9243L8.74617 19.8399L8.81943 20.0812C9.03877 20.8033 10.0911 21.8353 11.5318 22.7414C11.9308 22.9923 11.9974 23.0232 12.0639 22.988C12.2315 22.8994 12.8315 22.5122 13.1156 22.3092C14.1587 21.5642 14.8822 20.8124 15.1362 20.2097C15.2204 20.01 15.2268 19.9523 15.2378 19.2899L15.2495 18.5833L11.0405 14.3738H9.63904V12.9716L8.68118 12.0157L9.63904 11.056V9.65567H11.0393L11.9753 8.72161L12.9471 9.65567H15.2461L15.2263 3.96194L15.1287 3.75346C14.9082 3.28285 14.4172 2.73483 13.6979 2.15666C13.291 1.82958 12.0758 0.999645 12.0044 1C11.9814 1.00011 11.7786 1.11721 11.5536 1.26021ZM12.2395 2.21232C13.1765 2.84452 14.045 3.63894 14.2455 4.04744C14.3504 4.26093 14.3572 4.29881 14.3572 4.66804V5.06127L11.9985 7.42075L9.63904 5.06206V4.65069C9.63904 4.25954 9.64458 4.22825 9.75171 4.01391C9.87619 3.76477 10.3121 3.302 10.7759 2.9265C11.097 2.66665 11.944 2.06403 11.9883 2.06403C12.0056 2.06403 12.1187 2.13076 12.2395 2.21232ZM11.4612 3.42858C10.9603 3.80961 10.6158 4.17405 10.5461 4.39651L10.5211 4.47633H11.7675V3.85552C11.7675 3.51407 11.7556 3.23499 11.7409 3.23538C11.7263 3.23574 11.6004 3.32268 11.4612 3.42858ZM12.1932 3.85552V4.47633H12.814C13.5401 4.47633 13.5359 4.47949 13.2812 4.13357C13.0987 3.88553 12.3327 3.23471 12.2234 3.23471C12.2068 3.23471 12.1932 3.51407 12.1932 3.85552ZM7.97172 4.77308C8.08059 4.81433 8.23008 4.93168 8.44176 5.14198L8.75217 5.4504V8.76879H5.4337L5.14547 8.47613C4.98693 8.31518 4.83311 8.13525 4.80367 8.07632C4.61501 7.69883 4.63474 6.6154 4.85145 5.45189C4.89143 5.23727 4.93159 5.03648 4.94067 5.00572C4.95766 4.94832 5.4464 4.84314 6.07381 4.76187C6.2299 4.74165 6.4055 4.71869 6.46404 4.71082C6.52257 4.70294 6.84983 4.70014 7.19127 4.70454C7.67533 4.71082 7.84724 4.72593 7.97172 4.77308ZM10.5259 4.92902C10.5259 4.94385 10.8053 5.23503 11.1467 5.57605L11.7675 6.19612V4.90203H11.1467C10.8053 4.90203 10.5259 4.91416 10.5259 4.92902ZM12.1932 5.54058C12.1932 5.89178 12.2054 6.17912 12.2202 6.17912C12.2662 6.17912 13.4349 4.99263 13.4349 4.94598C13.4349 4.91271 13.2842 4.90203 12.814 4.90203H12.1932V5.54058ZM14.3572 7.56265V8.76879H13.3448L12.6376 8.0589L13.4882 7.20772C13.9561 6.73956 14.343 6.3565 14.3481 6.3565C14.3531 6.3565 14.3572 6.89926 14.3572 7.56265ZM10.6514 8.76879H9.63904V6.3748L11.3415 8.07611L10.6514 8.76879ZM7.40412 12.0144L5.04543 14.3738H4.66918C4.46222 14.3738 4.23866 14.3554 4.17232 14.3329C3.74162 14.1868 2.97483 13.3973 2.29364 12.3987C2.15823 12.2002 2.04741 12.0226 2.04741 12.004C2.04741 11.9854 2.16877 11.7967 2.31705 11.5845C3.00935 10.5943 3.64548 9.92205 4.07455 9.72736C4.19935 9.67074 4.30762 9.65709 4.63687 9.65645L5.04465 9.65567L7.40412 12.0144ZM8.75217 10.668L8.0421 11.3755L6.32231 9.65567H8.75217V10.668ZM8.40565 13.0162L8.75217 13.3614V14.3738H6.3227L7.17353 13.5224C7.64148 13.0542 8.0322 12.671 8.04175 12.671C8.05133 12.671 8.21508 12.8264 8.40565 13.0162ZM8.75217 18.5792L8.45822 18.8716C8.08425 19.2436 7.94043 19.3042 7.36765 19.331C7.14271 19.3415 6.76756 19.3306 6.53399 19.3069C6.03578 19.2564 5.07165 19.0992 4.98938 19.0552C4.9489 19.0335 4.90892 18.8921 4.85245 18.5705C4.66585 17.5082 4.62214 16.6504 4.73034 16.1723C4.7865 15.924 4.79696 15.9079 5.10936 15.5888L5.43058 15.2607H8.75217V18.5792ZM11.3394 15.9525L9.63904 17.6637V15.2607H10.6514L11.3394 15.9525ZM14.357 19.3401C14.3569 19.5451 14.3405 19.7715 14.3206 19.8432C14.2124 20.2326 13.399 21.0196 12.3839 21.7169C11.9512 22.0141 12.0393 22.0222 11.4983 21.6358C10.9078 21.214 10.5267 20.8946 10.1712 20.5231C9.7113 20.0427 9.66001 19.9329 9.64482 19.3968L9.63283 18.9744L11.9977 16.6087L14.3572 18.9674L14.357 19.3401Z" fill="#498680"/>
<path fill-rule="evenodd" clip-rule="evenodd" d="M11.5536 1.26021C11.3286 1.40324 10.9974 1.62674 10.8175 1.75686L10.4904 1.99351V1.39001H9.60357V2.74778L9.4026 2.98237C9.12082 3.31126 8.91532 3.63948 8.81985 3.91299L8.73823 4.1468L8.75217 5.4504V8.76879V9.65567H9.63904H11.0393L11.9753 8.72161L12.9471 9.65567H15.2461L15.2263 3.96194L15.1287 3.75346C14.9082 3.28285 14.4172 2.73483 13.6979 2.15666C13.291 1.82958 12.0758 0.999645 12.0044 1C11.9814 1.00011 11.7786 1.11721 11.5536 1.26021ZM14.2455 4.04744C14.045 3.63894 13.1765 2.84452 12.2395 2.21232C12.1187 2.13076 12.0056 2.06403 11.9883 2.06403C11.944 2.06403 11.097 2.66665 10.7759 2.9265C10.3121 3.302 9.87619 3.76477 9.75171 4.01391C9.64458 4.22825 9.63904 4.25954 9.63904 4.65069V5.06206L11.9985 7.42075L14.3572 5.06127V4.66804C14.3572 4.29881 14.3504 4.26093 14.2455 4.04744ZM14.3572 8.76879V7.56265C14.3572 6.89926 14.3531 6.3565 14.3481 6.3565C14.343 6.3565 13.9561 6.73956 13.4882 7.20772L12.6376 8.0589L13.3448 8.76879H14.3572ZM10.6514 8.76879L11.3415 8.07611L9.63904 6.3748V8.76879H10.6514Z" fill="url(#paint0_linear_3427_50441)"/>
<path d="M10.5259 4.92902C10.5259 4.94385 10.8053 5.23503 11.1467 5.57605L11.7675 6.19612V4.90203H11.1467C10.8053 4.90203 10.5259 4.91416 10.5259 4.92902Z" fill="url(#paint1_linear_3427_50441)"/>
<path d="M11.4612 3.42858C10.9603 3.80961 10.6158 4.17405 10.5461 4.39651L10.5211 4.47633H11.7675V3.85552C11.7675 3.51407 11.7556 3.23499 11.7409 3.23538C11.7263 3.23574 11.6004 3.32268 11.4612 3.42858Z" fill="url(#paint2_linear_3427_50441)"/>
<path d="M12.1932 3.85552V4.47633H12.814C13.5401 4.47633 13.5359 4.47949 13.2812 4.13357C13.0987 3.88553 12.3327 3.23471 12.2234 3.23471C12.2068 3.23471 12.1932 3.51407 12.1932 3.85552Z" fill="url(#paint3_linear_3427_50441)"/>
<path d="M12.1932 5.54058C12.1932 5.89178 12.2054 6.17912 12.2202 6.17912C12.2662 6.17912 13.4349 4.99263 13.4349 4.94598C13.4349 4.91271 13.2842 4.90203 12.814 4.90203H12.1932V5.54058Z" fill="url(#paint4_linear_3427_50441)"/>
<defs>
<linearGradient id="paint0_linear_3427_50441" x1="11.9922" y1="1" x2="11.9922" y2="9.65567" gradientUnits="userSpaceOnUse">
<stop stop-color="#B0CB1F"/>
<stop offset="1" stop-color="#25AAE2"/>
</linearGradient>
<linearGradient id="paint1_linear_3427_50441" x1="11.9922" y1="1" x2="11.9922" y2="9.65567" gradientUnits="userSpaceOnUse">
<stop stop-color="#B0CB1F"/>
<stop offset="1" stop-color="#25AAE2"/>
</linearGradient>
<linearGradient id="paint2_linear_3427_50441" x1="11.9922" y1="1" x2="11.9922" y2="9.65567" gradientUnits="userSpaceOnUse">
<stop stop-color="#B0CB1F"/>
<stop offset="1" stop-color="#25AAE2"/>
</linearGradient>
<linearGradient id="paint3_linear_3427_50441" x1="11.9922" y1="1" x2="11.9922" y2="9.65567" gradientUnits="userSpaceOnUse">
<stop stop-color="#B0CB1F"/>
<stop offset="1" stop-color="#25AAE2"/>
</linearGradient>
<linearGradient id="paint4_linear_3427_50441" x1="11.9922" y1="1" x2="11.9922" y2="9.65567" gradientUnits="userSpaceOnUse">
<stop stop-color="#B0CB1F"/>
<stop offset="1" stop-color="#25AAE2"/>
</linearGradient>
</defs>
</svg>
